<?xml version="1.0" encoding="utf-8"?>
<!-- Generator: Adobe Illustrator 24.0.1, SVG Export Plug-In . SVG Version: 6.00 Build 0)  -->
<svg version="1.1" id="Layer_1" xmlns="http://www.w3.org/2000/svg" xmlns:xlink="http://www.w3.org/1999/xlink" x="0px" y="0px"
	 viewBox="0 0 300 300" enable-background="new 0 0 300 300" xml:space="preserve">
<path fill="none" stroke="#000000" stroke-width="3" stroke-miterlimit="10" d="M136.469,190.502H77.592
	c-7.404,0-13.406-6.002-13.406-13.406v-64.88c0-7.404,6.002-13.406,13.406-13.406h58.877c7.404,0,13.406,6.002,13.406,13.406v64.88
	C149.875,184.5,143.873,190.502,136.469,190.502z"/>
<path fill="none" stroke="#000000" stroke-width="3" stroke-miterlimit="10" d="M222.158,190.502h-58.877
	c-7.404,0-13.406-6.002-13.406-13.406v-64.88c0-7.404,6.002-13.406,13.406-13.406h58.877c7.404,0,13.406,6.002,13.406,13.406v64.88
	C235.565,184.5,229.562,190.502,222.158,190.502z"/>
<g>
	
		<rect x="91.558" y="224.116" transform="matrix(-1 -1.224647e-16 1.224647e-16 -1 213.0943 460.1609)" fill="#FFFFFF" stroke="#000000" stroke-width="3" stroke-miterlimit="10" width="29.979" height="11.929"/>
	<path fill="#FFFFFF" stroke="#000000" stroke-width="3" stroke-miterlimit="10" d="M91.139,196.28h30.816
		c6.765,0,12.25,5.485,12.25,12.25v15.585H78.889V208.53C78.889,201.765,84.374,196.28,91.139,196.28z"/>
	<path fill="#FFFFFF" stroke="#000000" stroke-width="3" stroke-miterlimit="10" d="M128.08,246.89H85.014
		c-3.383,0-6.125-2.742-6.125-6.125v-4.72h55.316v4.72C134.205,244.148,131.463,246.89,128.08,246.89z"/>
	
		<rect x="131.497" y="209.294" transform="matrix(-1 -1.224647e-16 1.224647e-16 -1 270.3444 441.0014)" fill="#FFFFFF" stroke="#000000" stroke-width="3" stroke-miterlimit="10" width="7.35" height="22.413"/>
	
		<rect x="75.214" y="209.294" transform="matrix(-1 -1.224647e-16 1.224647e-16 -1 157.7783 441.0014)" fill="#FFFFFF" stroke="#000000" stroke-width="3" stroke-miterlimit="10" width="7.35" height="22.413"/>
</g>
<g>
	
		<rect x="177.247" y="224.116" transform="matrix(-1 -1.224647e-16 1.224647e-16 -1 384.4727 460.1609)" fill="#FFFFFF" stroke="#000000" stroke-width="3" stroke-miterlimit="10" width="29.979" height="11.929"/>
	<path fill="#FFFFFF" stroke="#000000" stroke-width="3" stroke-miterlimit="10" d="M176.828,196.28h30.816
		c6.765,0,12.25,5.485,12.25,12.25v15.585h-55.316V208.53C164.578,201.765,170.063,196.28,176.828,196.28z"/>
	<path fill="#FFFFFF" stroke="#000000" stroke-width="3" stroke-miterlimit="10" d="M213.769,246.89h-43.066
		c-3.383,0-6.125-2.742-6.125-6.125v-4.72h55.316v4.72C219.894,244.148,217.152,246.89,213.769,246.89z"/>
	
		<rect x="217.187" y="209.294" transform="matrix(-1 -1.224647e-16 1.224647e-16 -1 441.7228 441.0014)" fill="#FFFFFF" stroke="#000000" stroke-width="3" stroke-miterlimit="10" width="7.35" height="22.413"/>
	
		<rect x="160.904" y="209.294" transform="matrix(-1 -1.224647e-16 1.224647e-16 -1 329.1568 441.0014)" fill="#FFFFFF" stroke="#000000" stroke-width="3" stroke-miterlimit="10" width="7.35" height="22.413"/>
</g>
<g>
	
		<rect x="178.214" y="53.815" fill="#FFFFFF" stroke="#000000" stroke-width="3" stroke-miterlimit="10" width="29.979" height="11.929"/>
	<path fill="#FFFFFF" stroke="#000000" stroke-width="3" stroke-miterlimit="10" d="M208.611,93.58h-30.816
		c-6.765,0-12.25-5.485-12.25-12.25V65.745h55.316V81.33C220.861,88.096,215.377,93.58,208.611,93.58z"/>
	<path fill="#FFFFFF" stroke="#000000" stroke-width="3" stroke-miterlimit="10" d="M171.67,42.97h43.066
		c3.383,0,6.125,2.742,6.125,6.125v4.72h-55.316v-4.72C165.545,45.713,168.288,42.97,171.67,42.97z"/>
	
		<rect x="160.904" y="58.153" fill="#FFFFFF" stroke="#000000" stroke-width="3" stroke-miterlimit="10" width="7.35" height="22.413"/>
	
		<rect x="217.187" y="58.153" fill="#FFFFFF" stroke="#000000" stroke-width="3" stroke-miterlimit="10" width="7.35" height="22.413"/>
</g>
<g>
	
		<rect x="10.022" y="138.207" transform="matrix(6.123234e-17 -1 1 6.123234e-17 -119.1604 169.1839)" fill="#FFFFFF" stroke="#000000" stroke-width="3" stroke-miterlimit="10" width="29.979" height="11.929"/>
	<path fill="#FFFFFF" stroke="#000000" stroke-width="3" stroke-miterlimit="10" d="M58.812,128.764v30.816
		c0,6.765-5.485,12.25-12.25,12.25H30.976v-55.316h15.585C53.327,116.514,58.812,121.999,58.812,128.764z"/>
	<path fill="#FFFFFF" stroke="#000000" stroke-width="3" stroke-miterlimit="10" d="M8.202,165.705v-43.066
		c0-3.383,2.742-6.125,6.125-6.125h4.72v55.316h-4.72C10.944,171.83,8.202,169.088,8.202,165.705z"/>
	
		<rect x="30.917" y="161.591" transform="matrix(6.123234e-17 -1 1 6.123234e-17 -138.2057 207.3887)" fill="#FFFFFF" stroke="#000000" stroke-width="3" stroke-miterlimit="10" width="7.35" height="22.413"/>
	
		<rect x="30.917" y="105.308" transform="matrix(6.123234e-17 -1 1 6.123234e-17 -81.9227 151.1057)" fill="#FFFFFF" stroke="#000000" stroke-width="3" stroke-miterlimit="10" width="7.35" height="22.413"/>
</g>
<g>
	
		<rect x="92.525" y="53.815" fill="#FFFFFF" stroke="#000000" stroke-width="3" stroke-miterlimit="10" width="29.979" height="11.929"/>
	<path fill="#FFFFFF" stroke="#000000" stroke-width="3" stroke-miterlimit="10" d="M122.922,93.58H92.106
		c-6.765,0-12.25-5.485-12.25-12.25V65.745h55.316V81.33C135.172,88.096,129.688,93.58,122.922,93.58z"/>
	<path fill="#FFFFFF" stroke="#000000" stroke-width="3" stroke-miterlimit="10" d="M85.981,42.97h43.066
		c3.383,0,6.125,2.742,6.125,6.125v4.72H79.856v-4.72C79.856,45.713,82.598,42.97,85.981,42.97z"/>
	
		<rect x="75.214" y="58.153" fill="#FFFFFF" stroke="#000000" stroke-width="3" stroke-miterlimit="10" width="7.35" height="22.413"/>
	
		<rect x="131.497" y="58.153" fill="#FFFFFF" stroke="#000000" stroke-width="3" stroke-miterlimit="10" width="7.35" height="22.413"/>
</g>
<g>
</g>
<g>
</g>
<g>
</g>
<g>
</g>
<g>
</g>
<g>
</g>
</svg>
