<?xml version="1.0" encoding="utf-8"?>
<!-- Generator: Adobe Illustrator 24.0.1, SVG Export Plug-In . SVG Version: 6.00 Build 0)  -->
<svg version="1.1" id="Layer_1" xmlns="http://www.w3.org/2000/svg" xmlns:xlink="http://www.w3.org/1999/xlink" x="0px" y="0px"
	 viewBox="0 0 300 300" enable-background="new 0 0 300 300" xml:space="preserve">
<path fill="none" stroke="#000000" stroke-width="3" stroke-miterlimit="10" d="M110.737,173.926H80.245
	c-7.404,0-13.406-6.002-13.406-13.406v-34.507c0-7.404,6.002-13.406,13.406-13.406h30.492c7.404,0,13.406,6.002,13.406,13.406
	v34.507C124.143,167.923,118.141,173.926,110.737,173.926z"/>
<path fill="none" stroke="#000000" stroke-width="3" stroke-miterlimit="10" d="M167.466,173.926h-30.492
	c-7.404,0-13.406-6.002-13.406-13.406v-34.507c0-7.404,6.002-13.406,13.406-13.406h30.492c7.404,0,13.406,6.002,13.406,13.406
	v34.507C180.872,167.923,174.87,173.926,167.466,173.926z"/>
<path fill="none" stroke="#000000" stroke-width="3" stroke-miterlimit="10" d="M226.649,173.926h-30.492
	c-7.404,0-13.406-6.002-13.406-13.406v-34.507c0-7.404,6.002-13.406,13.406-13.406h30.492c7.404,0,13.406,6.002,13.406,13.406
	v34.507C240.055,167.923,234.053,173.926,226.649,173.926z"/>
<g>
	
		<rect x="83.903" y="202.877" transform="matrix(-1 -1.224647e-16 1.224647e-16 -1 190.2569 414.6883)" fill="#FFFFFF" stroke="#000000" stroke-width="3" stroke-miterlimit="10" width="22.451" height="8.934"/>
	<path fill="#FFFFFF" stroke="#000000" stroke-width="3" stroke-miterlimit="10" d="M86.665,182.031h16.926
		c6.765,0,12.25,5.485,12.25,12.25v8.596H74.415v-8.596C74.415,187.516,79.9,182.031,86.665,182.031z"/>
	<path fill="#FFFFFF" stroke="#000000" stroke-width="3" stroke-miterlimit="10" d="M109.717,219.933H80.54
		c-3.383,0-6.125-2.742-6.125-6.125v-1.997h41.426v1.997C115.842,217.191,113.099,219.933,109.717,219.933z"/>
	
		<rect x="113.814" y="191.777" transform="matrix(-1 -1.224647e-16 1.224647e-16 -1 233.1317 400.3396)" fill="#FFFFFF" stroke="#000000" stroke-width="3" stroke-miterlimit="10" width="5.504" height="16.785"/>
	
		<rect x="71.663" y="191.777" transform="matrix(-1 -1.224647e-16 1.224647e-16 -1 148.8306 400.3396)" fill="#FFFFFF" stroke="#000000" stroke-width="3" stroke-miterlimit="10" width="5.504" height="16.785"/>
</g>
<g>
	
		<rect x="84.627" y="76.533" fill="#FFFFFF" stroke="#000000" stroke-width="3" stroke-miterlimit="10" width="22.451" height="8.934"/>
	<path fill="#FFFFFF" stroke="#000000" stroke-width="3" stroke-miterlimit="10" d="M104.316,106.313H87.39
		c-6.765,0-12.25-5.485-12.25-12.25v-8.596h41.426v8.596C116.566,100.829,111.081,106.313,104.316,106.313z"/>
	<path fill="#FFFFFF" stroke="#000000" stroke-width="3" stroke-miterlimit="10" d="M81.265,68.411h29.176
		c3.383,0,6.125,2.742,6.125,6.125v1.997H75.14v-1.997C75.14,71.154,77.882,68.411,81.265,68.411z"/>
	
		<rect x="71.663" y="79.782" fill="#FFFFFF" stroke="#000000" stroke-width="3" stroke-miterlimit="10" width="5.504" height="16.785"/>
	
		<rect x="113.814" y="79.782" fill="#FFFFFF" stroke="#000000" stroke-width="3" stroke-miterlimit="10" width="5.504" height="16.785"/>
</g>
<g>
	
		<rect x="141.357" y="76.533" fill="#FFFFFF" stroke="#000000" stroke-width="3" stroke-miterlimit="10" width="22.451" height="8.934"/>
	<path fill="#FFFFFF" stroke="#000000" stroke-width="3" stroke-miterlimit="10" d="M161.045,106.313h-16.926
		c-6.765,0-12.25-5.485-12.25-12.25v-8.596h41.426v8.596C173.295,100.829,167.811,106.313,161.045,106.313z"/>
	<path fill="#FFFFFF" stroke="#000000" stroke-width="3" stroke-miterlimit="10" d="M137.994,68.411h29.176
		c3.383,0,6.125,2.742,6.125,6.125v1.997h-41.426v-1.997C131.869,71.154,134.611,68.411,137.994,68.411z"/>
	
		<rect x="128.393" y="79.782" fill="#FFFFFF" stroke="#000000" stroke-width="3" stroke-miterlimit="10" width="5.504" height="16.785"/>
	
		<rect x="170.543" y="79.782" fill="#FFFFFF" stroke="#000000" stroke-width="3" stroke-miterlimit="10" width="5.504" height="16.785"/>
</g>
<g>
	
		<rect x="200.539" y="76.533" fill="#FFFFFF" stroke="#000000" stroke-width="3" stroke-miterlimit="10" width="22.451" height="8.934"/>
	<path fill="#FFFFFF" stroke="#000000" stroke-width="3" stroke-miterlimit="10" d="M220.228,106.313h-16.926
		c-6.765,0-12.25-5.485-12.25-12.25v-8.596h41.426v8.596C232.478,100.829,226.994,106.313,220.228,106.313z"/>
	<path fill="#FFFFFF" stroke="#000000" stroke-width="3" stroke-miterlimit="10" d="M197.177,68.411h29.176
		c3.383,0,6.125,2.742,6.125,6.125v1.997h-41.426v-1.997C191.052,71.154,193.794,68.411,197.177,68.411z"/>
	
		<rect x="187.575" y="79.782" fill="#FFFFFF" stroke="#000000" stroke-width="3" stroke-miterlimit="10" width="5.504" height="16.785"/>
	
		<rect x="229.726" y="79.782" fill="#FFFFFF" stroke="#000000" stroke-width="3" stroke-miterlimit="10" width="5.504" height="16.785"/>
</g>
<g>
	
		<rect x="24.153" y="138.437" transform="matrix(6.123234e-17 -1 1 6.123234e-17 -107.5255 178.2824)" fill="#FFFFFF" stroke="#000000" stroke-width="3" stroke-miterlimit="10" width="22.451" height="8.934"/>
	<path fill="#FFFFFF" stroke="#000000" stroke-width="3" stroke-miterlimit="10" d="M60.692,134.441v16.926
		c0,6.765-5.485,12.25-12.25,12.25h-8.596v-41.426h8.596C55.207,122.191,60.692,127.675,60.692,134.441z"/>
	<path fill="#FFFFFF" stroke="#000000" stroke-width="3" stroke-miterlimit="10" d="M22.79,157.492v-29.176
		c0-3.383,2.742-6.125,6.125-6.125h1.997v41.426h-1.997C25.532,163.617,22.79,160.875,22.79,157.492z"/>
	
		<rect x="39.801" y="155.949" transform="matrix(6.123234e-17 -1 1 6.123234e-17 -121.7886 206.8941)" fill="#FFFFFF" stroke="#000000" stroke-width="3" stroke-miterlimit="10" width="5.504" height="16.785"/>
	
		<rect x="39.801" y="113.798" transform="matrix(6.123234e-17 -1 1 6.123234e-17 -79.638 164.7436)" fill="#FFFFFF" stroke="#000000" stroke-width="3" stroke-miterlimit="10" width="5.504" height="16.785"/>
</g>
<g>
	
		<rect x="140.632" y="202.877" transform="matrix(-1 -1.224647e-16 1.224647e-16 -1 303.7161 414.6883)" fill="#FFFFFF" stroke="#000000" stroke-width="3" stroke-miterlimit="10" width="22.451" height="8.934"/>
	<path fill="#FFFFFF" stroke="#000000" stroke-width="3" stroke-miterlimit="10" d="M143.395,182.031h16.926
		c6.765,0,12.25,5.485,12.25,12.25v8.596h-41.426v-8.596C131.145,187.516,136.629,182.031,143.395,182.031z"/>
	<path fill="#FFFFFF" stroke="#000000" stroke-width="3" stroke-miterlimit="10" d="M166.446,219.933H137.27
		c-3.383,0-6.125-2.742-6.125-6.125v-1.997h41.426v1.997C172.571,217.191,169.829,219.933,166.446,219.933z"/>
	
		<rect x="170.543" y="191.777" transform="matrix(-1 -1.224647e-16 1.224647e-16 -1 346.5909 400.3396)" fill="#FFFFFF" stroke="#000000" stroke-width="3" stroke-miterlimit="10" width="5.504" height="16.785"/>
	
		<rect x="128.393" y="191.777" transform="matrix(-1 -1.224647e-16 1.224647e-16 -1 262.2897 400.3396)" fill="#FFFFFF" stroke="#000000" stroke-width="3" stroke-miterlimit="10" width="5.504" height="16.785"/>
</g>
<g>
	
		<rect x="199.815" y="202.065" transform="matrix(-1 -1.224647e-16 1.224647e-16 -1 422.0812 413.0639)" fill="#FFFFFF" stroke="#000000" stroke-width="3" stroke-miterlimit="10" width="22.451" height="8.934"/>
	<path fill="#FFFFFF" stroke="#000000" stroke-width="3" stroke-miterlimit="10" d="M202.577,181.219h16.926
		c6.765,0,12.25,5.485,12.25,12.25v8.596h-41.426v-8.596C190.327,186.703,195.812,181.219,202.577,181.219z"/>
	<path fill="#FFFFFF" stroke="#000000" stroke-width="3" stroke-miterlimit="10" d="M225.629,219.121h-29.176
		c-3.383,0-6.125-2.742-6.125-6.125v-1.997h41.426v1.997C231.754,216.379,229.012,219.121,225.629,219.121z"/>
	
		<rect x="229.726" y="190.965" transform="matrix(-1 -1.224647e-16 1.224647e-16 -1 464.9561 398.7153)" fill="#FFFFFF" stroke="#000000" stroke-width="3" stroke-miterlimit="10" width="5.504" height="16.785"/>
	
		<rect x="187.575" y="190.965" transform="matrix(-1 -1.224647e-16 1.224647e-16 -1 380.6549 398.7153)" fill="#FFFFFF" stroke="#000000" stroke-width="3" stroke-miterlimit="10" width="5.504" height="16.785"/>
</g>
<g>
</g>
<g>
</g>
<g>
</g>
<g>
</g>
<g>
</g>
<g>
</g>
</svg>
