<?xml version="1.0" encoding="utf-8"?>
<!-- Generator: Adobe Illustrator 24.0.1, SVG Export Plug-In . SVG Version: 6.00 Build 0)  -->
<svg version="1.1" id="Layer_1" xmlns="http://www.w3.org/2000/svg" xmlns:xlink="http://www.w3.org/1999/xlink" x="0px" y="0px"
	 viewBox="0 0 300 300" enable-background="new 0 0 300 300" xml:space="preserve">
<path fill="none" stroke="#000000" stroke-width="3" stroke-miterlimit="10" d="M82.914,154.671H62.751
	c-7.404,0-13.406-6.002-13.406-13.406v-23.454c0-7.404,6.002-13.406,13.406-13.406h20.163c7.404,0,13.406,6.002,13.406,13.406
	v23.454C96.32,148.669,90.318,154.671,82.914,154.671z"/>
<path fill="none" stroke="#000000" stroke-width="3" stroke-miterlimit="10" d="M129.89,154.671h-20.163
	c-7.404,0-13.406-6.002-13.406-13.406v-23.454c0-7.404,6.002-13.406,13.406-13.406h20.163c7.404,0,13.406,6.002,13.406,13.406
	v23.454C143.296,148.669,137.294,154.671,129.89,154.671z"/>
<path fill="none" stroke="#000000" stroke-width="3" stroke-miterlimit="10" d="M176.865,154.671h-20.163
	c-7.404,0-13.406-6.002-13.406-13.406v-23.454c0-7.404,6.002-13.406,13.406-13.406h20.163c7.404,0,13.406,6.002,13.406,13.406
	v23.454C190.271,148.669,184.269,154.671,176.865,154.671z"/>
<path fill="none" stroke="#000000" stroke-width="3" stroke-miterlimit="10" d="M223.841,154.671h-20.163
	c-7.404,0-13.406-6.002-13.406-13.406v-23.454c0-7.404,6.002-13.406,13.406-13.406h20.163c7.404,0,13.406,6.002,13.406,13.406
	v23.454C237.247,148.669,231.245,154.671,223.841,154.671z"/>
<g>
	
		<rect x="63.927" y="76.069" fill="#FFFFFF" stroke="#000000" stroke-width="3" stroke-miterlimit="10" width="18.405" height="7.324"/>
	<path fill="#FFFFFF" stroke="#000000" stroke-width="3" stroke-miterlimit="10" d="M77.859,100.481H68.4
		c-6.765,0-12.25-5.485-12.25-12.25v-4.839h33.959v4.839C90.109,94.996,84.625,100.481,77.859,100.481z"/>
	<path fill="#FFFFFF" stroke="#000000" stroke-width="3" stroke-miterlimit="10" d="M62.275,69.411h21.709
		c3.383,0,6.125,2.742,6.125,6.125v0.533H56.15v-0.533C56.15,72.153,58.892,69.411,62.275,69.411z"/>
	
		<rect x="53.3" y="78.732" fill="#FFFFFF" stroke="#000000" stroke-width="3" stroke-miterlimit="10" width="4.512" height="13.76"/>
	
		<rect x="87.853" y="78.732" fill="#FFFFFF" stroke="#000000" stroke-width="3" stroke-miterlimit="10" width="4.512" height="13.76"/>
</g>
<g>
	
		<rect x="110.903" y="76.069" fill="#FFFFFF" stroke="#000000" stroke-width="3" stroke-miterlimit="10" width="18.405" height="7.324"/>
	<path fill="#FFFFFF" stroke="#000000" stroke-width="3" stroke-miterlimit="10" d="M124.835,100.481h-9.459
		c-6.765,0-12.25-5.485-12.25-12.25v-4.839h33.959v4.839C137.085,94.996,131.6,100.481,124.835,100.481z"/>
	<path fill="#FFFFFF" stroke="#000000" stroke-width="3" stroke-miterlimit="10" d="M109.25,69.411h21.709
		c3.383,0,6.125,2.742,6.125,6.125v0.533h-33.959v-0.533C103.125,72.153,105.867,69.411,109.25,69.411z"/>
	
		<rect x="100.276" y="78.732" fill="#FFFFFF" stroke="#000000" stroke-width="3" stroke-miterlimit="10" width="4.512" height="13.76"/>
	
		<rect x="134.828" y="78.732" fill="#FFFFFF" stroke="#000000" stroke-width="3" stroke-miterlimit="10" width="4.512" height="13.76"/>
</g>
<g>
	
		<rect x="157.878" y="76.069" fill="#FFFFFF" stroke="#000000" stroke-width="3" stroke-miterlimit="10" width="18.405" height="7.324"/>
	<path fill="#FFFFFF" stroke="#000000" stroke-width="3" stroke-miterlimit="10" d="M171.81,100.481h-9.459
		c-6.765,0-12.25-5.485-12.25-12.25v-4.839h33.959v4.839C184.06,94.996,178.576,100.481,171.81,100.481z"/>
	<path fill="#FFFFFF" stroke="#000000" stroke-width="3" stroke-miterlimit="10" d="M156.226,69.411h21.709
		c3.383,0,6.125,2.742,6.125,6.125v0.533h-33.959v-0.533C150.101,72.153,152.843,69.411,156.226,69.411z"/>
	
		<rect x="147.251" y="78.732" fill="#FFFFFF" stroke="#000000" stroke-width="3" stroke-miterlimit="10" width="4.512" height="13.76"/>
	
		<rect x="181.804" y="78.732" fill="#FFFFFF" stroke="#000000" stroke-width="3" stroke-miterlimit="10" width="4.512" height="13.76"/>
</g>
<g>
	
		<rect x="204.854" y="76.069" fill="#FFFFFF" stroke="#000000" stroke-width="3" stroke-miterlimit="10" width="18.405" height="7.324"/>
	<path fill="#FFFFFF" stroke="#000000" stroke-width="3" stroke-miterlimit="10" d="M218.786,100.481h-9.459
		c-6.765,0-12.25-5.485-12.25-12.25v-4.839h33.959v4.839C231.036,94.996,225.551,100.481,218.786,100.481z"/>
	<path fill="#FFFFFF" stroke="#000000" stroke-width="3" stroke-miterlimit="10" d="M203.201,69.411h21.709
		c3.383,0,6.125,2.742,6.125,6.125v0.533h-33.959v-0.533C197.076,72.153,199.818,69.411,203.201,69.411z"/>
	
		<rect x="194.227" y="78.732" fill="#FFFFFF" stroke="#000000" stroke-width="3" stroke-miterlimit="10" width="4.512" height="13.76"/>
	
		<rect x="228.779" y="78.732" fill="#FFFFFF" stroke="#000000" stroke-width="3" stroke-miterlimit="10" width="4.512" height="13.76"/>
</g>
<g>
	
		<rect x="204.26" y="175.822" transform="matrix(-1 -1.224647e-16 1.224647e-16 -1 426.9244 358.9678)" fill="#FFFFFF" stroke="#000000" stroke-width="3" stroke-miterlimit="10" width="18.405" height="7.324"/>
	<path fill="#FFFFFF" stroke="#000000" stroke-width="3" stroke-miterlimit="10" d="M208.733,158.733h9.459
		c6.765,0,12.25,5.485,12.25,12.25v4.839h-33.959v-4.839C196.483,164.218,201.967,158.733,208.733,158.733z"/>
	<path fill="#FFFFFF" stroke="#000000" stroke-width="3" stroke-miterlimit="10" d="M224.317,189.804h-21.709
		c-3.383,0-6.125-2.742-6.125-6.125v-0.533h33.959v0.533C230.442,187.061,227.7,189.804,224.317,189.804z"/>
	
		<rect x="228.779" y="166.723" transform="matrix(-1 -1.224647e-16 1.224647e-16 -1 462.071 347.2055)" fill="#FFFFFF" stroke="#000000" stroke-width="3" stroke-miterlimit="10" width="4.512" height="13.76"/>
	
		<rect x="194.227" y="166.723" transform="matrix(-1 -1.224647e-16 1.224647e-16 -1 392.9651 347.2055)" fill="#FFFFFF" stroke="#000000" stroke-width="3" stroke-miterlimit="10" width="4.512" height="13.76"/>
</g>
<g>
	
		<rect x="157.284" y="175.822" transform="matrix(-1 -1.224647e-16 1.224647e-16 -1 332.9734 358.9678)" fill="#FFFFFF" stroke="#000000" stroke-width="3" stroke-miterlimit="10" width="18.405" height="7.324"/>
	<path fill="#FFFFFF" stroke="#000000" stroke-width="3" stroke-miterlimit="10" d="M161.757,158.733h9.459
		c6.765,0,12.25,5.485,12.25,12.25v4.839h-33.959v-4.839C149.507,164.218,154.992,158.733,161.757,158.733z"/>
	<path fill="#FFFFFF" stroke="#000000" stroke-width="3" stroke-miterlimit="10" d="M177.341,189.804h-21.709
		c-3.383,0-6.125-2.742-6.125-6.125v-0.533h33.959v0.533C183.466,187.061,180.724,189.804,177.341,189.804z"/>
	
		<rect x="181.804" y="166.723" transform="matrix(-1 -1.224647e-16 1.224647e-16 -1 368.12 347.2055)" fill="#FFFFFF" stroke="#000000" stroke-width="3" stroke-miterlimit="10" width="4.512" height="13.76"/>
	
		<rect x="147.251" y="166.723" transform="matrix(-1 -1.224647e-16 1.224647e-16 -1 299.0141 347.2055)" fill="#FFFFFF" stroke="#000000" stroke-width="3" stroke-miterlimit="10" width="4.512" height="13.76"/>
</g>
<g>
	
		<rect x="110.309" y="175.822" transform="matrix(-1 -1.224647e-16 1.224647e-16 -1 239.0224 358.9678)" fill="#FFFFFF" stroke="#000000" stroke-width="3" stroke-miterlimit="10" width="18.405" height="7.324"/>
	<path fill="#FFFFFF" stroke="#000000" stroke-width="3" stroke-miterlimit="10" d="M114.782,158.733h9.459
		c6.765,0,12.25,5.485,12.25,12.25v4.839h-33.959v-4.839C102.532,164.218,108.016,158.733,114.782,158.733z"/>
	<path fill="#FFFFFF" stroke="#000000" stroke-width="3" stroke-miterlimit="10" d="M130.366,189.804h-21.709
		c-3.383,0-6.125-2.742-6.125-6.125v-0.533h33.959v0.533C136.491,187.061,133.749,189.804,130.366,189.804z"/>
	
		<rect x="134.828" y="166.723" transform="matrix(-1 -1.224647e-16 1.224647e-16 -1 274.169 347.2055)" fill="#FFFFFF" stroke="#000000" stroke-width="3" stroke-miterlimit="10" width="4.512" height="13.76"/>
	
		<rect x="100.276" y="166.723" transform="matrix(-1 -1.224647e-16 1.224647e-16 -1 205.0631 347.2055)" fill="#FFFFFF" stroke="#000000" stroke-width="3" stroke-miterlimit="10" width="4.512" height="13.76"/>
</g>
<g>
	
		<rect x="63.333" y="175.822" transform="matrix(-1 -1.224647e-16 1.224647e-16 -1 145.0714 358.9678)" fill="#FFFFFF" stroke="#000000" stroke-width="3" stroke-miterlimit="10" width="18.405" height="7.324"/>
	<path fill="#FFFFFF" stroke="#000000" stroke-width="3" stroke-miterlimit="10" d="M67.806,158.733h9.459
		c6.765,0,12.25,5.485,12.25,12.25v4.839H55.556v-4.839C55.556,164.218,61.041,158.733,67.806,158.733z"/>
	<path fill="#FFFFFF" stroke="#000000" stroke-width="3" stroke-miterlimit="10" d="M83.39,189.804H61.681
		c-3.383,0-6.125-2.742-6.125-6.125v-0.533h33.959v0.533C89.515,187.061,86.773,189.804,83.39,189.804z"/>
	
		<rect x="87.853" y="166.723" transform="matrix(-1 -1.224647e-16 1.224647e-16 -1 180.218 347.2055)" fill="#FFFFFF" stroke="#000000" stroke-width="3" stroke-miterlimit="10" width="4.512" height="13.76"/>
	
		<rect x="53.3" y="166.723" transform="matrix(-1 -1.224647e-16 1.224647e-16 -1 111.1121 347.2055)" fill="#FFFFFF" stroke="#000000" stroke-width="3" stroke-miterlimit="10" width="4.512" height="13.76"/>
</g>
<g>
	
		<rect x="253.664" y="126.173" transform="matrix(-1.836970e-16 1 -1 -1.836970e-16 392.7008 -133.0311)" fill="#FFFFFF" stroke="#000000" stroke-width="3" stroke-miterlimit="10" width="18.405" height="7.324"/>
	<path fill="#FFFFFF" stroke="#000000" stroke-width="3" stroke-miterlimit="10" d="M242.115,134.565v-9.459
		c0-6.765,5.485-12.25,12.25-12.25h4.839v33.959h-4.839C247.6,146.815,242.115,141.33,242.115,134.565z"/>
	<path fill="#FFFFFF" stroke="#000000" stroke-width="3" stroke-miterlimit="10" d="M273.186,118.98v21.709
		c0,3.383-2.742,6.125-6.125,6.125h-0.533v-33.959h0.533C270.443,112.855,273.186,115.597,273.186,118.98z"/>
	
		<rect x="254.729" y="105.382" transform="matrix(-1.836970e-16 1 -1 -1.836970e-16 369.2463 -144.7233)" fill="#FFFFFF" stroke="#000000" stroke-width="3" stroke-miterlimit="10" width="4.512" height="13.76"/>
	
		<rect x="254.729" y="139.935" transform="matrix(-1.836970e-16 1 -1 -1.836970e-16 403.7993 -110.1703)" fill="#FFFFFF" stroke="#000000" stroke-width="3" stroke-miterlimit="10" width="4.512" height="13.76"/>
</g>
<g>
	
		<rect x="14.515" y="125.579" transform="matrix(6.123234e-17 -1 1 6.123234e-17 -105.5241 152.9583)" fill="#FFFFFF" stroke="#000000" stroke-width="3" stroke-miterlimit="10" width="18.405" height="7.324"/>
	<path fill="#FFFFFF" stroke="#000000" stroke-width="3" stroke-miterlimit="10" d="M44.468,124.512v9.459
		c0,6.765-5.485,12.25-12.25,12.25h-4.839v-33.959h4.839C38.983,112.262,44.468,117.746,44.468,124.512z"/>
	<path fill="#FFFFFF" stroke="#000000" stroke-width="3" stroke-miterlimit="10" d="M13.397,140.096v-21.709
		c0-3.383,2.742-6.125,6.125-6.125h0.533v33.959h-0.533C16.14,146.221,13.397,143.479,13.397,140.096z"/>
	
		<rect x="27.342" y="139.935" transform="matrix(6.123234e-17 -1 1 6.123234e-17 -117.2162 176.4128)" fill="#FFFFFF" stroke="#000000" stroke-width="3" stroke-miterlimit="10" width="4.512" height="13.76"/>
	
		<rect x="27.342" y="105.382" transform="matrix(6.123234e-17 -1 1 6.123234e-17 -82.6633 141.8598)" fill="#FFFFFF" stroke="#000000" stroke-width="3" stroke-miterlimit="10" width="4.512" height="13.76"/>
</g>
<g>
</g>
<g>
</g>
<g>
</g>
<g>
</g>
<g>
</g>
<g>
</g>
</svg>
