<?xml version="1.0" encoding="utf-8"?>
<!-- Generator: Adobe Illustrator 24.0.1, SVG Export Plug-In . SVG Version: 6.00 Build 0)  -->
<svg version="1.1" id="Layer_1" xmlns="http://www.w3.org/2000/svg" xmlns:xlink="http://www.w3.org/1999/xlink" x="0px" y="0px"
	 viewBox="0 0 300 300" enable-background="new 0 0 300 300" xml:space="preserve">
<polygon points="75.176,237.093 75.176,47.986 183.275,47.986 183.275,42.704 75.176,42.704 69.894,42.704 69.894,47.986 
	69.894,237.093 69.894,242.375 75.176,242.375 249.25,242.375 249.25,237.093 "/>
<circle cx="53.478" cy="60.807" r="9.478"/>
<circle fill="#27AAE1" cx="56.573" cy="63.088" r="4.095"/>
<circle cx="53.478" cy="85.397" r="9.478"/>
<circle cx="53.478" cy="113.061" r="9.478"/>
<circle cx="53.478" cy="137.652" r="9.478"/>
<circle cx="159.503" cy="31.036" r="9.478"/>
<circle cx="134.912" cy="31.036" r="9.478"/>
<circle cx="107.248" cy="31.036" r="9.478"/>
<circle cx="82.658" cy="31.036" r="9.478"/>
<circle cx="198.732" cy="254.043" r="9.478"/>
<circle cx="159.572" cy="254.043" r="9.478"/>
<circle cx="125.435" cy="254.043" r="9.478"/>
<circle cx="87.012" cy="254.043" r="9.478"/>
<circle cx="53.478" cy="163.842" r="9.478"/>
<circle cx="53.478" cy="188.432" r="9.478"/>
<circle cx="53.478" cy="213.022" r="9.478"/>
<circle fill="#27AAE1" cx="55.573" cy="86.934" r="4.095"/>
<circle fill="#27AAE1" cx="55.573" cy="114.5" r="4.095"/>
<circle fill="#27AAE1" cx="55.573" cy="138.452" r="4.095"/>
<circle fill="#27AAE1" cx="55.573" cy="165.842" r="4.095"/>
<circle fill="#27AAE1" cx="55.573" cy="191.232" r="4.095"/>
<circle fill="#27AAE1" cx="55.573" cy="215.022" r="4.095"/>
<circle fill="#27AAE1" cx="88.75" cy="251.948" r="4.095"/>
<circle fill="#27AAE1" cx="127.53" cy="251.948" r="4.095"/>
<circle fill="#27AAE1" cx="162.083" cy="251.948" r="4.095"/>
<circle fill="#27AAE1" cx="200.333" cy="250.948" r="4.095"/>
<circle fill="#27AAE1" cx="84.655" cy="33.132" r="4.095"/>
<circle fill="#27AAE1" cx="108.785" cy="33.132" r="4.095"/>
<circle fill="#27AAE1" cx="137.941" cy="33.132" r="4.095"/>
<circle fill="#27AAE1" cx="161.66" cy="33.132" r="4.095"/>
<g>
	<rect x="87.146" y="137.652" fill="none" width="136.854" height="30.223"/>
	<path d="M88.514,138.458c0.685-0.144,1.765-0.252,2.863-0.252c1.566,0,2.575,0.27,3.331,0.882c0.63,0.468,1.008,1.188,1.008,2.143
		c0,1.17-0.774,2.197-2.052,2.665v0.036c1.152,0.288,2.502,1.243,2.502,3.043c0,1.044-0.414,1.836-1.026,2.431
		c-0.846,0.774-2.214,1.134-4.195,1.134c-1.081,0-1.909-0.072-2.431-0.144V138.458z M90.081,143.428h1.422
		c1.656,0,2.629-0.864,2.629-2.035c0-1.422-1.081-1.98-2.665-1.98c-0.72,0-1.134,0.054-1.386,0.108V143.428z M90.081,149.243
		c0.306,0.054,0.756,0.072,1.314,0.072c1.621,0,3.115-0.594,3.115-2.359c0-1.656-1.422-2.341-3.133-2.341h-1.296V149.243z"/>
	<path d="M100.233,146.615l-1.26,3.817h-1.621l4.123-12.136h1.891l4.141,12.136h-1.674l-1.296-3.817H100.233z M104.212,145.39
		l-1.188-3.493c-0.271-0.792-0.45-1.512-0.63-2.214h-0.036c-0.18,0.72-0.378,1.458-0.612,2.196l-1.188,3.511H104.212z"/>
	<path d="M109.287,138.458c0.792-0.162,1.926-0.252,3.007-0.252c1.674,0,2.755,0.306,3.511,0.99c0.612,0.54,0.955,1.369,0.955,2.305
		c0,1.603-1.008,2.665-2.287,3.097v0.054c0.936,0.324,1.494,1.188,1.782,2.449c0.396,1.692,0.684,2.863,0.937,3.331h-1.621
		c-0.198-0.342-0.468-1.386-0.81-2.899c-0.36-1.674-1.009-2.305-2.431-2.358h-1.476v5.257h-1.566V138.458z M110.853,143.986h1.603
		c1.674,0,2.736-0.918,2.736-2.305c0-1.566-1.134-2.251-2.791-2.269c-0.756,0-1.296,0.072-1.548,0.144V143.986z"/>
	<path d="M124.749,146.615l-1.26,3.817h-1.621l4.123-12.136h1.891l4.141,12.136h-1.674l-1.296-3.817H124.749z M128.728,145.39
		l-1.188-3.493c-0.27-0.792-0.45-1.512-0.63-2.214h-0.036c-0.18,0.72-0.378,1.458-0.612,2.196l-1.188,3.511H128.728z"/>
	<path d="M133.802,138.458c0.792-0.162,1.927-0.252,3.007-0.252c1.674,0,2.754,0.306,3.511,0.99c0.612,0.54,0.955,1.369,0.955,2.305
		c0,1.603-1.008,2.665-2.287,3.097v0.054c0.937,0.324,1.495,1.188,1.783,2.449c0.396,1.692,0.684,2.863,0.937,3.331h-1.621
		c-0.198-0.342-0.468-1.386-0.811-2.899c-0.36-1.674-1.008-2.305-2.431-2.358h-1.476v5.257h-1.567V138.458z M135.369,143.986h1.602
		c1.675,0,2.737-0.918,2.737-2.305c0-1.566-1.135-2.251-2.791-2.269c-0.756,0-1.296,0.072-1.548,0.144V143.986z"/>
	<path d="M149.771,144.742h-4.717v4.375h5.257v1.314h-6.824v-12.136h6.554v1.314h-4.987v3.835h4.717V144.742z"/>
	<path d="M154.305,146.615l-1.26,3.817h-1.621l4.123-12.136h1.891l4.142,12.136h-1.675l-1.296-3.817H154.305z M158.284,145.39
		l-1.188-3.493c-0.27-0.792-0.449-1.512-0.63-2.214h-0.036c-0.18,0.72-0.378,1.458-0.612,2.196l-1.188,3.511H158.284z"/>
</g>
<g>
</g>
<g>
</g>
<g>
</g>
<g>
</g>
<g>
</g>
<g>
</g>
</svg>
