<?xml version="1.0" encoding="utf-8"?>
<!-- Generator: Adobe Illustrator 24.0.1, SVG Export Plug-In . SVG Version: 6.00 Build 0)  -->
<svg version="1.1" id="Layer_1" xmlns="http://www.w3.org/2000/svg" xmlns:xlink="http://www.w3.org/1999/xlink" x="0px" y="0px"
	 viewBox="0 0 300 300" enable-background="new 0 0 300 300" xml:space="preserve">
<polygon fill="none" stroke="#000000" stroke-width="3" stroke-miterlimit="10" points="111.351,110 111.351,204.25 89.601,204.25 
	89.601,110 74.928,110 100.476,65.75 126.024,110 "/>
<polygon fill="none" stroke="#000000" stroke-width="3" stroke-miterlimit="10" points="211.399,110 211.399,204.25 189.649,204.25 
	189.649,110 174.976,110 200.524,65.75 226.072,110 "/>
<g>
	<path d="M88.922,246.323c-0.066-1.782-0.132-3.938-0.132-6.095h-0.066c-0.462,1.892-1.078,4.004-1.65,5.742l-1.804,5.787h-2.618
		l-1.584-5.742c-0.484-1.738-0.99-3.851-1.342-5.787h-0.044c-0.088,2.002-0.154,4.29-0.264,6.139L79.152,252H76.05l0.946-14.83
		h4.467l1.452,4.95c0.462,1.717,0.924,3.565,1.254,5.304h0.066c0.418-1.717,0.924-3.675,1.408-5.325l1.584-4.929h4.378L92.42,252
		h-3.279L88.922,246.323z"/>
	<path d="M98.38,248.193L97.324,252h-3.477l4.533-14.83h4.4L107.38,252h-3.609l-1.144-3.807H98.38z M102.143,245.686l-0.924-3.146
		c-0.264-0.881-0.528-1.98-0.748-2.861h-0.044c-0.22,0.881-0.44,2.003-0.682,2.861l-0.88,3.146H102.143z"/>
	<path d="M112.725,237.17V252h-3.367v-14.83H112.725z"/>
	<path d="M115.627,252v-14.83h3.917l3.081,5.435c0.88,1.563,1.76,3.411,2.42,5.083h0.066c-0.221-1.958-0.287-3.961-0.287-6.183
		v-4.335h3.081V252h-3.521l-3.168-5.721c-0.88-1.584-1.848-3.499-2.574-5.237l-0.066,0.022c0.088,1.958,0.132,4.049,0.132,6.469V252
		H115.627z"/>
	<path d="M144.074,245.729h-5.457v3.521h6.096V252h-9.462v-14.83h9.153v2.75h-5.787v3.081h5.457V245.729z"/>
	<path d="M146.999,252v-14.83h3.917l3.08,5.435c0.88,1.563,1.76,3.411,2.42,5.083h0.066c-0.22-1.958-0.286-3.961-0.286-6.183v-4.335
		h3.081V252h-3.521l-3.168-5.721c-0.88-1.584-1.849-3.499-2.574-5.237l-0.066,0.022c0.088,1.958,0.132,4.049,0.132,6.469V252
		H146.999z"/>
	<path d="M165.039,239.986h-3.982v-2.816h11.397v2.816h-4.049V252h-3.366V239.986z"/>
	<path d="M174.234,237.368c1.078-0.177,2.685-0.309,4.467-0.309c2.2,0,3.74,0.33,4.797,1.166c0.88,0.704,1.364,1.738,1.364,3.103
		c0,1.893-1.343,3.19-2.619,3.653v0.065c1.034,0.418,1.606,1.408,1.98,2.772c0.462,1.672,0.925,3.608,1.21,4.181h-3.432
		c-0.242-0.418-0.595-1.628-1.034-3.454c-0.396-1.849-1.034-2.354-2.398-2.377h-1.013V252h-3.322V237.368z M177.557,243.749h1.32
		c1.673,0,2.662-0.836,2.662-2.135c0-1.364-0.924-2.046-2.464-2.068c-0.814,0-1.276,0.066-1.519,0.11V243.749z"/>
	<path d="M190.932,248.193L189.876,252h-3.477l4.532-14.83h4.401l4.599,14.83h-3.608l-1.145-3.807H190.932z M194.694,245.686
		l-0.924-3.146c-0.264-0.881-0.528-1.98-0.748-2.861h-0.044c-0.22,0.881-0.44,2.003-0.683,2.861l-0.88,3.146H194.694z"/>
	<path d="M201.91,252v-14.83h3.917l3.08,5.435c0.88,1.563,1.761,3.411,2.42,5.083h0.066c-0.22-1.958-0.286-3.961-0.286-6.183v-4.335
		h3.08V252h-3.52l-3.169-5.721c-0.88-1.584-1.849-3.499-2.574-5.237l-0.066,0.022c0.088,1.958,0.132,4.049,0.132,6.469V252H201.91z"
		/>
	<path d="M227.981,251.582c-0.616,0.308-2.002,0.638-3.807,0.638c-5.127,0-7.767-3.19-7.767-7.415c0-5.061,3.608-7.877,8.097-7.877
		c1.738,0,3.059,0.353,3.652,0.66l-0.682,2.662c-0.683-0.286-1.628-0.55-2.816-0.55c-2.662,0-4.73,1.606-4.73,4.907
		c0,2.97,1.76,4.84,4.752,4.84c1.013,0,2.135-0.22,2.795-0.483L227.981,251.582z"/>
	<path d="M239.002,245.729h-5.457v3.521h6.096V252h-9.462v-14.83h9.153v2.75h-5.787v3.081h5.457V245.729z"/>
</g>
</svg>
