<?xml version="1.0" encoding="utf-8"?>
<!-- Generator: Adobe Illustrator 24.0.1, SVG Export Plug-In . SVG Version: 6.00 Build 0)  -->
<svg version="1.1" id="Layer_1" xmlns="http://www.w3.org/2000/svg" xmlns:xlink="http://www.w3.org/1999/xlink" x="0px" y="0px"
	 viewBox="0 0 300 300" enable-background="new 0 0 300 300" xml:space="preserve">
<g>
	<path fill="none" stroke="#000000" stroke-width="4" stroke-miterlimit="10" d="M47.287,197.265V87.891
		c0,0,105.5,36.746,105.5,109.373"/>
	<path fill="none" stroke="#000000" stroke-width="4" stroke-miterlimit="10" d="M258.287,197.265V87.891
		c0,0-105.5,36.746-105.5,109.373"/>
</g>
<g>
	<path fill="none" stroke="#000000" stroke-width="0.15" stroke-miterlimit="10" d="M-153.804-93.637v-5.469
		c0,0,5.275,1.837,5.275,5.469"/>
	<path fill="none" stroke="#000000" stroke-width="0.15" stroke-miterlimit="10" d="M-143.254-93.637v-5.469
		c0,0-5.275,1.837-5.275,5.469"/>
</g>
<g>
	<path d="M-151.385-92.728c-0.003-0.056-0.007-0.124-0.006-0.174h-0.002c-0.014,0.047-0.031,0.098-0.051,0.154l-0.071,0.196h-0.04
		l-0.065-0.193c-0.019-0.057-0.035-0.109-0.047-0.157h-0.001c-0.001,0.05-0.004,0.118-0.008,0.179l-0.011,0.173h-0.05l0.028-0.404
		h0.067l0.069,0.196c0.017,0.05,0.031,0.094,0.041,0.136h0.002c0.01-0.041,0.025-0.085,0.043-0.136l0.072-0.196h0.067l0.025,0.404
		h-0.051L-151.385-92.728z"/>
	<path d="M-151.183-92.677l-0.042,0.127h-0.054l0.137-0.404h0.063l0.138,0.404h-0.056l-0.043-0.127H-151.183z M-151.051-92.718
		l-0.04-0.116c-0.009-0.026-0.015-0.05-0.021-0.074h-0.001c-0.006,0.024-0.013,0.049-0.02,0.073l-0.04,0.117H-151.051z"/>
	<path d="M-150.829-92.954v0.404h-0.052v-0.404H-150.829z"/>
	<path d="M-150.738-92.55v-0.404h0.057l0.13,0.204c0.03,0.047,0.053,0.09,0.073,0.131l0.001-0.001
		c-0.005-0.054-0.006-0.103-0.006-0.166v-0.169h0.049v0.404h-0.053l-0.128-0.205c-0.028-0.045-0.055-0.091-0.076-0.135l-0.002,0.001
		c0.003,0.051,0.004,0.1,0.004,0.167v0.173H-150.738z"/>
	<path d="M-150.007-92.74h-0.157v0.146h0.175v0.044h-0.227v-0.404h0.218v0.044h-0.166v0.128h0.157L-150.007-92.74L-150.007-92.74z"
		/>
	<path d="M-149.921-92.55v-0.404h0.057l0.13,0.204c0.03,0.047,0.053,0.09,0.073,0.131l0.001-0.001
		c-0.005-0.054-0.006-0.103-0.006-0.166v-0.169h0.049v0.404h-0.053l-0.128-0.205c-0.028-0.045-0.055-0.091-0.076-0.135l-0.002,0.001
		c0.003,0.051,0.004,0.1,0.004,0.167v0.173H-149.921z"/>
	<path d="M-149.449-92.91h-0.123v-0.044h0.299v0.044h-0.124v0.36h-0.053L-149.449-92.91L-149.449-92.91z"/>
	<path d="M-149.228-92.949c0.026-0.005,0.064-0.008,0.1-0.008c0.056,0,0.092,0.01,0.117,0.033c0.02,0.018,0.032,0.046,0.032,0.077
		c0,0.053-0.034,0.089-0.076,0.103v0.002c0.031,0.011,0.05,0.04,0.059,0.082c0.013,0.056,0.023,0.095,0.031,0.111h-0.054
		c-0.007-0.011-0.016-0.046-0.027-0.097c-0.012-0.056-0.034-0.077-0.081-0.079h-0.049v0.175h-0.052L-149.228-92.949L-149.228-92.949
		z M-149.176-92.765h0.053c0.056,0,0.091-0.031,0.091-0.077c0-0.052-0.038-0.075-0.093-0.076c-0.025,0-0.043,0.002-0.052,0.005
		V-92.765z"/>
	<path d="M-148.837-92.677l-0.042,0.127h-0.054l0.137-0.404h0.063l0.138,0.404h-0.056l-0.043-0.127H-148.837z M-148.704-92.718
		l-0.04-0.116c-0.009-0.026-0.015-0.05-0.021-0.074h-0.001c-0.006,0.024-0.013,0.049-0.02,0.073l-0.04,0.117H-148.704z"/>
	<path d="M-148.535-92.55v-0.404h0.057l0.129,0.204c0.03,0.047,0.053,0.09,0.073,0.131l0.001-0.001
		c-0.005-0.054-0.006-0.103-0.006-0.166v-0.169h0.049v0.404h-0.053l-0.128-0.205c-0.028-0.045-0.055-0.091-0.076-0.135l-0.002,0.001
		c0.003,0.051,0.004,0.1,0.004,0.167v0.173H-148.535z"/>
	<path d="M-147.858-92.563c-0.019,0.01-0.058,0.019-0.107,0.019c-0.114,0-0.2-0.072-0.2-0.204c0-0.127,0.086-0.212,0.211-0.212
		c0.05,0,0.082,0.011,0.096,0.018l-0.013,0.043c-0.02-0.01-0.048-0.017-0.082-0.017c-0.095,0-0.158,0.061-0.158,0.167
		c0,0.099,0.057,0.162,0.155,0.162c0.032,0,0.064-0.007,0.085-0.017L-147.858-92.563z"/>
	<path d="M-147.583-92.74h-0.157v0.146h0.175v0.044h-0.227v-0.404h0.218v0.044h-0.166v0.128h0.157V-92.74z"/>
	<path d="M-147.257-92.966c-0.044,0.059-0.076,0.137-0.076,0.245c0,0.107,0.033,0.184,0.076,0.243h-0.041
		c-0.038-0.05-0.079-0.127-0.079-0.243c0.001-0.118,0.041-0.195,0.079-0.245H-147.257z"/>
	<path d="M-147.207-92.614c0.023,0.014,0.058,0.026,0.094,0.026c0.053,0,0.085-0.028,0.085-0.069c0-0.038-0.022-0.059-0.076-0.08
		c-0.066-0.023-0.107-0.058-0.107-0.115c0-0.063,0.052-0.11,0.131-0.11c0.041,0,0.071,0.01,0.089,0.02l-0.014,0.043
		c-0.013-0.007-0.04-0.019-0.077-0.019c-0.055,0-0.076,0.033-0.076,0.061c0,0.038,0.025,0.056,0.08,0.078
		c0.068,0.026,0.103,0.059,0.103,0.119c0,0.062-0.046,0.116-0.142,0.116c-0.039,0-0.082-0.011-0.103-0.026L-147.207-92.614z"/>
	<path d="M-146.558-92.756c0,0.139-0.085,0.213-0.188,0.213c-0.107,0-0.182-0.083-0.182-0.205c0-0.128,0.08-0.212,0.188-0.212
		C-146.63-92.961-146.558-92.876-146.558-92.756z M-146.872-92.75c0,0.086,0.047,0.164,0.129,0.164c0.083,0,0.13-0.076,0.13-0.168
		c0-0.08-0.042-0.164-0.129-0.164C-146.829-92.918-146.872-92.838-146.872-92.75z"/>
	<path d="M-146.438-92.954v0.239c0,0.091,0.04,0.129,0.094,0.129c0.06,0,0.098-0.04,0.098-0.129v-0.239h0.053v0.236
		c0,0.124-0.065,0.175-0.153,0.175c-0.083,0-0.145-0.047-0.145-0.173v-0.238H-146.438L-146.438-92.954z"/>
	<path d="M-146.025-92.91h-0.123v-0.044h0.299v0.044h-0.124v0.36h-0.053L-146.025-92.91L-146.025-92.91z"/>
	<path d="M-145.752-92.954v0.169h0.195v-0.169h0.053v0.404h-0.053v-0.189h-0.195v0.189h-0.052v-0.404H-145.752z"/>
	<path d="M-145.446-92.477c0.043-0.059,0.076-0.137,0.076-0.245c0-0.107-0.032-0.184-0.076-0.243h0.041
		c0.038,0.049,0.079,0.126,0.079,0.244c0,0.118-0.04,0.194-0.079,0.245L-145.446-92.477L-145.446-92.477z"/>
</g>
<g>
	<path d="M45.067,217.958c-0.063-1.7-0.126-3.759-0.126-5.815h-0.063c-0.441,1.805-1.029,3.82-1.575,5.479l-1.722,5.522h-2.499
		l-1.512-5.48c-0.462-1.658-0.945-3.674-1.281-5.521h-0.042c-0.084,1.91-0.147,4.094-0.252,5.857l-0.252,5.375h-2.96l0.903-14.151
		h4.262l1.386,4.724c0.441,1.639,0.882,3.402,1.197,5.061h0.063c0.399-1.638,0.882-3.506,1.344-5.081l1.512-4.703h4.178
		l0.777,14.151h-3.128L45.067,217.958z"/>
	<path d="M54.099,219.742l-1.008,3.633h-3.317l4.325-14.151h4.199l4.388,14.151h-3.443l-1.092-3.633H54.099z M57.689,217.35
		l-0.882-3.003c-0.252-0.84-0.504-1.89-0.714-2.729h-0.042c-0.21,0.84-0.42,1.91-0.651,2.729l-0.84,3.003H57.689z"/>
	<path d="M67.791,209.224v14.151h-3.212v-14.151H67.791z"/>
	<path d="M70.563,223.375v-14.151H74.3l2.939,5.187c0.84,1.49,1.68,3.254,2.311,4.85h0.063c-0.21-1.869-0.273-3.779-0.273-5.9
		v-4.136h2.939v14.151h-3.359l-3.023-5.459c-0.839-1.512-1.763-3.338-2.456-4.997l-0.063,0.021c0.084,1.869,0.126,3.863,0.126,6.174
		v4.262H70.563z"/>
	<path d="M97.713,217.391h-5.207v3.359h5.816v2.625h-9.028v-14.151h8.734v2.624h-5.522v2.939h5.207V217.391z"/>
	<path d="M100.508,223.375v-14.151h3.737l2.939,5.187c0.84,1.49,1.68,3.254,2.31,4.85h0.063c-0.209-1.869-0.272-3.779-0.272-5.9
		v-4.136h2.939v14.151h-3.359l-3.023-5.459c-0.84-1.512-1.764-3.338-2.456-4.997l-0.063,0.021c0.084,1.869,0.126,3.863,0.126,6.174
		v4.262H100.508z"/>
	<path d="M117.727,211.911h-3.801v-2.688h10.877v2.688h-3.863v11.464h-3.213V211.911z"/>
	<path d="M126.505,209.412c1.028-0.168,2.562-0.293,4.263-0.293c2.1,0,3.568,0.314,4.576,1.112c0.84,0.672,1.303,1.659,1.303,2.96
		c0,1.807-1.281,3.045-2.499,3.486v0.063c0.987,0.398,1.532,1.344,1.89,2.646c0.441,1.596,0.882,3.443,1.154,3.989h-3.275
		c-0.23-0.398-0.566-1.554-0.986-3.297c-0.378-1.764-0.986-2.246-2.289-2.268h-0.965v5.564h-3.171V209.412z M129.676,215.502h1.26
		c1.596,0,2.54-0.799,2.54-2.037c0-1.302-0.882-1.953-2.352-1.974c-0.776,0-1.218,0.063-1.448,0.104V215.502z"/>
	<path d="M142.444,219.742l-1.008,3.633h-3.318l4.326-14.151h4.199l4.387,14.151h-3.443l-1.092-3.633H142.444z M146.034,217.35
		l-0.882-3.003c-0.252-0.84-0.504-1.89-0.714-2.729h-0.042c-0.21,0.84-0.42,1.91-0.651,2.729l-0.84,3.003H146.034z"/>
	<path d="M152.923,223.375v-14.151h3.737l2.939,5.187c0.84,1.49,1.68,3.254,2.31,4.85h0.063c-0.211-1.869-0.273-3.779-0.273-5.9
		v-4.136h2.939v14.151h-3.359l-3.023-5.459c-0.84-1.512-1.764-3.338-2.457-4.997l-0.063,0.021c0.084,1.869,0.126,3.863,0.126,6.174
		v4.262H152.923z"/>
	<path d="M177.805,222.977c-0.588,0.293-1.91,0.608-3.632,0.608c-4.892,0-7.411-3.044-7.411-7.075c0-4.83,3.443-7.518,7.727-7.518
		c1.658,0,2.918,0.336,3.484,0.631l-0.65,2.54c-0.65-0.272-1.554-0.524-2.688-0.524c-2.541,0-4.514,1.532-4.514,4.682
		c0,2.834,1.68,4.619,4.535,4.619c0.965,0,2.036-0.21,2.666-0.462L177.805,222.977z"/>
	<path d="M188.326,217.391h-5.207v3.359h5.816v2.625h-9.028v-14.151h8.734v2.624h-5.522v2.939h5.207V217.391z"/>
	<path d="M199.856,208.867c-1.196,1.932-2.12,4.744-2.12,8.503c0,3.695,0.944,6.487,2.12,8.44h-2.226
		c-1.134-1.617-2.394-4.409-2.394-8.461c0.021-4.074,1.26-6.846,2.394-8.482H199.856z"/>
	<path d="M202.063,220.078c0.86,0.441,2.184,0.883,3.548,0.883c1.47,0,2.247-0.609,2.247-1.533c0-0.882-0.672-1.386-2.373-1.994
		c-2.352-0.819-3.885-2.121-3.885-4.179c0-2.415,2.016-4.263,5.354-4.263c1.596,0,2.771,0.336,3.611,0.715l-0.714,2.582
		c-0.566-0.273-1.574-0.672-2.961-0.672c-1.385,0-2.057,0.63-2.057,1.365c0,0.902,0.797,1.301,2.624,1.994
		c2.499,0.924,3.675,2.226,3.675,4.221c0,2.372-1.827,4.388-5.711,4.388c-1.617,0-3.213-0.42-4.011-0.86L202.063,220.078z"/>
	<path d="M226.252,216.152c0,4.641-2.814,7.453-6.95,7.453c-4.199,0-6.655-3.17-6.655-7.201c0-4.241,2.708-7.412,6.887-7.412
		C223.879,208.992,226.252,212.247,226.252,216.152z M216.026,216.342c0,2.771,1.302,4.724,3.443,4.724
		c2.163,0,3.401-2.058,3.401-4.808c0-2.541-1.218-4.725-3.422-4.725C217.286,211.533,216.026,213.591,216.026,216.342z"/>
	<path d="M231.545,209.224v8.146c0,2.436,0.924,3.675,2.562,3.675c1.68,0,2.604-1.176,2.604-3.675v-8.146h3.191v7.937
		c0,4.367-2.204,6.445-5.899,6.445c-3.57,0-5.67-1.973-5.67-6.487v-7.895H231.545z"/>
	<path d="M245.405,211.911h-3.8v-2.688h10.875v2.688h-3.863v11.464h-3.212V211.911z"/>
	<path d="M257.395,209.224v5.438h5.271v-5.438h3.191v14.151h-3.191v-5.921h-5.271v5.921h-3.212v-14.151H257.395z"/>
	<path d="M268.002,225.811c1.154-1.932,2.12-4.766,2.12-8.482s-0.944-6.509-2.12-8.461h2.225c1.113,1.616,2.395,4.367,2.395,8.461
		c-0.021,4.094-1.281,6.845-2.395,8.482H268.002z"/>
</g>
</svg>
