<?xml version="1.0" encoding="utf-8"?>
<!-- Generator: Adobe Illustrator 24.0.1, SVG Export Plug-In . SVG Version: 6.00 Build 0)  -->
<svg version="1.1" id="Layer_1" xmlns="http://www.w3.org/2000/svg" xmlns:xlink="http://www.w3.org/1999/xlink" x="0px" y="0px"
	 viewBox="0 0 174.5 300" enable-background="new 0 0 174.5 300" xml:space="preserve">
<path stroke="#000000" stroke-miterlimit="10" d="M127.473,248.592H47.527c-5.538,0-10.027-4.489-10.027-10.027
	V55.098c0-5.538,4.489-10.027,10.027-10.027h79.945c5.538,0,10.027,4.489,10.027,10.027v183.467
	C137.5,244.102,133.011,248.592,127.473,248.592z"/>
<path fill="#808285" d="M166.088,55.787h4.243c1.292,0,2.34,1.048,2.34,2.34v18.041c0,1.292-1.048,2.34-2.34,2.34h-4.243
	c-1.292,0-2.34-1.048-2.34-2.34V58.127C163.748,56.835,164.795,55.787,166.088,55.787z"/>
<path fill="#808285" stroke="#000000" stroke-width="0.25" stroke-miterlimit="10" d="M161.512,78.508H138.33v-22.72h23.182
	c1.292,0,2.34,1.048,2.34,2.34v18.041C163.852,77.46,162.804,78.508,161.512,78.508z"/>
<path stroke="#000000" stroke-miterlimit="10" d="M164.568,81.383h-23.842c-0.464,0-0.84-0.376-0.84-0.84v-1.196
	c0-0.464,0.376-0.84,0.84-0.84h23.842c0.464,0,0.84,0.376,0.84,0.84v1.196C165.408,81.007,165.032,81.383,164.568,81.383z"/>
<path stroke="#000000" stroke-miterlimit="10" d="M164.568,55.787h-23.842c-0.464,0-0.84-0.376-0.84-0.84v-1.196
	c0-0.464,0.376-0.84,0.84-0.84h23.842c0.464,0,0.84,0.376,0.84,0.84v1.196C165.408,55.411,165.032,55.787,164.568,55.787z"/>
<path fill="#808285" d="M166.088,87.245h4.243c1.292,0,2.34,1.048,2.34,2.34v18.041c0,1.292-1.048,2.34-2.34,2.34h-4.243
	c-1.292,0-2.34-1.048-2.34-2.34V89.585C163.748,88.293,164.795,87.245,166.088,87.245z"/>
<path fill="#808285" stroke="#000000" stroke-width="0.25" stroke-miterlimit="10" d="M161.512,109.965H138.33v-22.72h23.182
	c1.292,0,2.34,1.048,2.34,2.34v18.041C163.852,108.918,162.804,109.965,161.512,109.965z"/>
<path stroke="#000000" stroke-miterlimit="10" d="M164.568,112.841h-23.842c-0.464,0-0.84-0.376-0.84-0.84v-1.196
	c0-0.464,0.376-0.84,0.84-0.84h23.842c0.464,0,0.84,0.376,0.84,0.84v1.196C165.408,112.465,165.032,112.841,164.568,112.841z"/>
<path stroke="#000000" stroke-miterlimit="10" d="M164.568,87.245h-23.842c-0.464,0-0.84-0.376-0.84-0.84v-1.196
	c0-0.464,0.376-0.84,0.84-0.84h23.842c0.464,0,0.84,0.376,0.84,0.84v1.196C165.408,86.869,165.032,87.245,164.568,87.245z"/>
<path fill="#808285" d="M59.664,16.687v-4.243c0-1.292,1.048-2.34,2.34-2.34h18.041c1.292,0,2.34,1.048,2.34,2.34v4.243
	c0,1.292-1.048,2.34-2.34,2.34H62.004C60.712,19.027,59.664,17.979,59.664,16.687z"/>
<path fill="#808285" stroke="#000000" stroke-width="0.25" stroke-miterlimit="10" d="M82.385,21.263v23.182h-22.72V21.263
	c0-1.292,1.048-2.34,2.34-2.34h18.041C81.337,18.923,82.385,19.971,82.385,21.263z"/>
<path stroke="#000000" stroke-miterlimit="10" d="M85.261,18.207v23.842c0,0.464-0.376,0.84-0.84,0.84h-1.196
	c-0.464,0-0.84-0.376-0.84-0.84V18.207c0-0.464,0.376-0.84,0.84-0.84h1.196C84.885,17.367,85.261,17.743,85.261,18.207z"/>
<path stroke="#000000" stroke-miterlimit="10" d="M59.664,18.207v23.842c0,0.464-0.376,0.84-0.84,0.84h-1.196
	c-0.464,0-0.84-0.376-0.84-0.84V18.207c0-0.464,0.376-0.84,0.84-0.84h1.196C59.288,17.367,59.664,17.743,59.664,18.207z"/>
<path fill="#808285" d="M91.122,16.687v-4.243c0-1.292,1.048-2.34,2.34-2.34h18.041c1.292,0,2.34,1.048,2.34,2.34v4.243
	c0,1.292-1.048,2.34-2.34,2.34H93.462C92.17,19.027,91.122,17.979,91.122,16.687z"/>
<path fill="#808285" stroke="#000000" stroke-width="0.25" stroke-miterlimit="10" d="M113.843,21.263v23.182h-22.72V21.263
	c0-1.292,1.048-2.34,2.34-2.34h18.041C112.795,18.923,113.843,19.971,113.843,21.263z"/>
<path stroke="#000000" stroke-miterlimit="10" d="M116.718,18.207v23.842c0,0.464-0.376,0.84-0.84,0.84h-1.196
	c-0.464,0-0.84-0.376-0.84-0.84V18.207c0-0.464,0.376-0.84,0.84-0.84h1.196C116.342,17.367,116.718,17.743,116.718,18.207z"/>
<path stroke="#000000" stroke-miterlimit="10" d="M91.122,18.207v23.842c0,0.464-0.376,0.84-0.84,0.84h-1.196
	c-0.464,0-0.84-0.376-0.84-0.84V18.207c0-0.464,0.376-0.84,0.84-0.84h1.196C90.746,17.367,91.122,17.743,91.122,18.207z"/>
<path fill="#808285" d="M113.843,276.975v4.243c0,1.292-1.048,2.34-2.34,2.34H93.462c-1.292,0-2.34-1.048-2.34-2.34v-4.243
	c0-1.292,1.048-2.34,2.34-2.34h18.041C112.795,274.635,113.843,275.683,113.843,276.975z"/>
<path fill="#808285" stroke="#000000" stroke-width="0.25" stroke-miterlimit="10" d="M91.122,272.399v-23.182h22.72v23.182
	c0,1.292-1.048,2.34-2.34,2.34H93.462C92.17,274.739,91.122,273.691,91.122,272.399z"/>
<path stroke="#000000" stroke-miterlimit="10" d="M88.246,275.455v-23.842c0-0.464,0.376-0.84,0.84-0.84h1.196
	c0.464,0,0.84,0.376,0.84,0.84v23.842c0,0.464-0.376,0.84-0.84,0.84h-1.196C88.622,276.295,88.246,275.919,88.246,275.455z"/>
<path stroke="#000000" stroke-miterlimit="10" d="M113.843,275.455v-23.842c0-0.464,0.376-0.84,0.84-0.84h1.196
	c0.464,0,0.84,0.376,0.84,0.84v23.842c0,0.464-0.376,0.84-0.84,0.84h-1.196C114.219,276.295,113.843,275.919,113.843,275.455z"/>
<path fill="#808285" d="M82.385,276.975v4.243c0,1.292-1.048,2.34-2.34,2.34H62.004c-1.292,0-2.34-1.048-2.34-2.34v-4.243
	c0-1.292,1.048-2.34,2.34-2.34h18.041C81.337,274.635,82.385,275.683,82.385,276.975z"/>
<path fill="#808285" stroke="#000000" stroke-width="0.25" stroke-miterlimit="10" d="M59.664,272.399v-23.182h22.72v23.182
	c0,1.292-1.048,2.34-2.34,2.34H62.004C60.712,274.739,59.664,273.691,59.664,272.399z"/>
<path stroke="#000000" stroke-miterlimit="10" d="M56.789,275.455v-23.842c0-0.464,0.376-0.84,0.84-0.84h1.196
	c0.464,0,0.84,0.376,0.84,0.84v23.842c0,0.464-0.376,0.84-0.84,0.84h-1.196C57.165,276.295,56.789,275.919,56.789,275.455z"/>
<path stroke="#000000" stroke-miterlimit="10" d="M82.385,275.455v-23.842c0-0.464,0.376-0.84,0.84-0.84h1.196
	c0.464,0,0.84,0.376,0.84,0.84v23.842c0,0.464-0.376,0.84-0.84,0.84h-1.196C82.761,276.295,82.385,275.919,82.385,275.455z"/>
<path fill="#808285" d="M166.088,118.703h4.243c1.292,0,2.34,1.048,2.34,2.34v18.041c0,1.292-1.048,2.34-2.34,2.34h-4.243
	c-1.292,0-2.34-1.048-2.34-2.34v-18.041C163.748,119.75,164.795,118.703,166.088,118.703z"/>
<path fill="#808285" stroke="#000000" stroke-width="0.25" stroke-miterlimit="10" d="M161.512,141.423H138.33v-22.72h23.182
	c1.292,0,2.34,1.048,2.34,2.34v18.041C163.852,140.376,162.804,141.423,161.512,141.423z"/>
<path stroke="#000000" stroke-miterlimit="10" d="M164.568,144.299h-23.842c-0.464,0-0.84-0.376-0.84-0.84v-1.196
	c0-0.464,0.376-0.84,0.84-0.84h23.842c0.464,0,0.84,0.376,0.84,0.84v1.196C165.408,143.923,165.032,144.299,164.568,144.299z"/>
<path stroke="#000000" stroke-miterlimit="10" d="M164.568,118.703h-23.842c-0.464,0-0.84-0.376-0.84-0.84v-1.196
	c0-0.464,0.376-0.84,0.84-0.84h23.842c0.464,0,0.84,0.376,0.84,0.84v1.196C165.408,118.327,165.032,118.703,164.568,118.703z"/>
<path fill="#808285" d="M166.088,150.161h4.243c1.292,0,2.34,1.048,2.34,2.34v18.041c0,1.292-1.048,2.34-2.34,2.34h-4.243
	c-1.292,0-2.34-1.048-2.34-2.34V152.5C163.748,151.208,164.795,150.161,166.088,150.161z"/>
<path fill="#808285" stroke="#000000" stroke-width="0.25" stroke-miterlimit="10" d="M161.512,172.881H138.33v-22.72h23.182
	c1.292,0,2.34,1.048,2.34,2.34v18.041C163.852,171.833,162.804,172.881,161.512,172.881z"/>
<path stroke="#000000" stroke-miterlimit="10" d="M164.568,175.757h-23.842c-0.464,0-0.84-0.376-0.84-0.84v-1.196
	c0-0.464,0.376-0.84,0.84-0.84h23.842c0.464,0,0.84,0.376,0.84,0.84v1.196C165.408,175.381,165.032,175.757,164.568,175.757z"/>
<path stroke="#000000" stroke-miterlimit="10" d="M164.568,150.161h-23.842c-0.464,0-0.84-0.376-0.84-0.84v-1.196
	c0-0.464,0.376-0.84,0.84-0.84h23.842c0.464,0,0.84,0.376,0.84,0.84v1.196C165.408,149.785,165.032,150.161,164.568,150.161z"/>
<path fill="#808285" d="M166.088,181.618h4.243c1.292,0,2.34,1.048,2.34,2.34v18.041c0,1.292-1.048,2.34-2.34,2.34h-4.243
	c-1.292,0-2.34-1.048-2.34-2.34v-18.041C163.748,182.666,164.795,181.618,166.088,181.618z"/>
<path fill="#808285" stroke="#000000" stroke-width="0.25" stroke-miterlimit="10" d="M161.512,204.339H138.33v-22.72h23.182
	c1.292,0,2.34,1.048,2.34,2.34v18.041C163.852,203.291,162.804,204.339,161.512,204.339z"/>
<path stroke="#000000" stroke-miterlimit="10" d="M164.568,207.215h-23.842c-0.464,0-0.84-0.376-0.84-0.84v-1.196
	c0-0.464,0.376-0.84,0.84-0.84h23.842c0.464,0,0.84,0.376,0.84,0.84v1.196C165.408,206.839,165.032,207.215,164.568,207.215z"/>
<path stroke="#000000" stroke-miterlimit="10" d="M164.568,181.618h-23.842c-0.464,0-0.84-0.376-0.84-0.84v-1.196
	c0-0.464,0.376-0.84,0.84-0.84h23.842c0.464,0,0.84,0.376,0.84,0.84v1.196C165.408,181.242,165.032,181.618,164.568,181.618z"/>
<path fill="#808285" d="M166.088,213.076h4.243c1.292,0,2.34,1.048,2.34,2.34v18.041c0,1.292-1.048,2.34-2.34,2.34h-4.243
	c-1.292,0-2.34-1.048-2.34-2.34v-18.041C163.748,214.124,164.795,213.076,166.088,213.076z"/>
<path fill="#808285" stroke="#000000" stroke-width="0.25" stroke-miterlimit="10" d="M161.512,235.797H138.33v-22.72h23.182
	c1.292,0,2.34,1.048,2.34,2.34v18.041C163.852,234.749,162.804,235.797,161.512,235.797z"/>
<path stroke="#000000" stroke-miterlimit="10" d="M164.568,238.672h-23.842c-0.464,0-0.84-0.376-0.84-0.84v-1.196
	c0-0.464,0.376-0.84,0.84-0.84h23.842c0.464,0,0.84,0.376,0.84,0.84v1.196C165.408,238.296,165.032,238.672,164.568,238.672z"/>
<path stroke="#000000" stroke-miterlimit="10" d="M164.568,213.076h-23.842c-0.464,0-0.84-0.376-0.84-0.84v-1.196
	c0-0.464,0.376-0.84,0.84-0.84h23.842c0.464,0,0.84,0.376,0.84,0.84v1.196C165.408,212.7,165.032,213.076,164.568,213.076z"/>
<path fill="#808285" d="M8.665,232.866H4.422c-1.292,0-2.34-1.048-2.34-2.34v-18.041c0-1.292,1.048-2.34,2.34-2.34h4.243
	c1.292,0,2.34,1.048,2.34,2.34v18.041C11.004,231.818,9.957,232.866,8.665,232.866z"/>
<path fill="#808285" stroke="#000000" stroke-width="0.25" stroke-miterlimit="10" d="M13.24,210.145h23.182v22.72H13.24
	c-1.292,0-2.34-1.048-2.34-2.34v-18.041C10.901,211.193,11.948,210.145,13.24,210.145z"/>
<path stroke="#000000" stroke-miterlimit="10" d="M10.184,207.27h23.842c0.464,0,0.84,0.376,0.84,0.84v1.196
	c0,0.464-0.376,0.84-0.84,0.84H10.184c-0.464,0-0.84-0.376-0.84-0.84v-1.196C9.344,207.646,9.72,207.27,10.184,207.27z"/>
<path stroke="#000000" stroke-miterlimit="10" d="M10.184,232.866h23.842c0.464,0,0.84,0.376,0.84,0.84v1.196
	c0,0.464-0.376,0.84-0.84,0.84H10.184c-0.464,0-0.84-0.376-0.84-0.84v-1.196C9.344,233.242,9.72,232.866,10.184,232.866z"/>
<path fill="#808285" d="M8.665,201.408H4.422c-1.292,0-2.34-1.048-2.34-2.34v-18.041c0-1.292,1.048-2.34,2.34-2.34h4.243
	c1.292,0,2.34,1.048,2.34,2.34v18.041C11.004,200.36,9.957,201.408,8.665,201.408z"/>
<path fill="#808285" stroke="#000000" stroke-width="0.25" stroke-miterlimit="10" d="M13.24,178.688h23.182v22.72H13.24
	c-1.292,0-2.34-1.048-2.34-2.34v-18.041C10.901,179.735,11.948,178.688,13.24,178.688z"/>
<path stroke="#000000" stroke-miterlimit="10" d="M10.184,175.812h23.842c0.464,0,0.84,0.376,0.84,0.84v1.196
	c0,0.464-0.376,0.84-0.84,0.84H10.184c-0.464,0-0.84-0.376-0.84-0.84v-1.196C9.344,176.188,9.72,175.812,10.184,175.812z"/>
<path stroke="#000000" stroke-miterlimit="10" d="M10.184,201.408h23.842c0.464,0,0.84,0.376,0.84,0.84v1.196
	c0,0.464-0.376,0.84-0.84,0.84H10.184c-0.464,0-0.84-0.376-0.84-0.84v-1.196C9.344,201.784,9.72,201.408,10.184,201.408z"/>
<path fill="#808285" d="M8.665,169.95H4.422c-1.292,0-2.34-1.048-2.34-2.34V149.57c0-1.292,1.048-2.34,2.34-2.34h4.243
	c1.292,0,2.34,1.048,2.34,2.34v18.041C11.004,168.903,9.957,169.95,8.665,169.95z"/>
<path fill="#808285" stroke="#000000" stroke-width="0.25" stroke-miterlimit="10" d="M13.24,147.23h23.182v22.72H13.24
	c-1.292,0-2.34-1.048-2.34-2.34V149.57C10.901,148.277,11.948,147.23,13.24,147.23z"/>
<path stroke="#000000" stroke-miterlimit="10" d="M10.184,144.354h23.842c0.464,0,0.84,0.376,0.84,0.84v1.196
	c0,0.464-0.376,0.84-0.84,0.84H10.184c-0.464,0-0.84-0.376-0.84-0.84v-1.196C9.344,144.73,9.72,144.354,10.184,144.354z"/>
<path stroke="#000000" stroke-miterlimit="10" d="M10.184,169.95h23.842c0.464,0,0.84,0.376,0.84,0.84v1.196
	c0,0.464-0.376,0.84-0.84,0.84H10.184c-0.464,0-0.84-0.376-0.84-0.84v-1.196C9.344,170.326,9.72,169.95,10.184,169.95z"/>
<path fill="#808285" d="M8.665,138.492H4.422c-1.292,0-2.34-1.048-2.34-2.34v-18.041c0-1.292,1.048-2.34,2.34-2.34h4.243
	c1.292,0,2.34,1.048,2.34,2.34v18.041C11.004,137.445,9.957,138.492,8.665,138.492z"/>
<path fill="#808285" stroke="#000000" stroke-width="0.25" stroke-miterlimit="10" d="M13.24,115.772h23.182v22.72H13.24
	c-1.292,0-2.34-1.048-2.34-2.34v-18.041C10.901,116.819,11.948,115.772,13.24,115.772z"/>
<path stroke="#000000" stroke-miterlimit="10" d="M10.184,112.896h23.842c0.464,0,0.84,0.376,0.84,0.84v1.196
	c0,0.464-0.376,0.84-0.84,0.84H10.184c-0.464,0-0.84-0.376-0.84-0.84v-1.196C9.344,113.272,9.72,112.896,10.184,112.896z"/>
<path stroke="#000000" stroke-miterlimit="10" d="M10.184,138.492h23.842c0.464,0,0.84,0.376,0.84,0.84v1.196
	c0,0.464-0.376,0.84-0.84,0.84H10.184c-0.464,0-0.84-0.376-0.84-0.84v-1.196C9.344,138.868,9.72,138.492,10.184,138.492z"/>
<path fill="#808285" d="M8.665,107.035H4.422c-1.292,0-2.34-1.048-2.34-2.34V86.654c0-1.292,1.048-2.34,2.34-2.34h4.243
	c1.292,0,2.34,1.048,2.34,2.34v18.041C11.004,105.987,9.957,107.035,8.665,107.035z"/>
<path fill="#808285" stroke="#000000" stroke-width="0.25" stroke-miterlimit="10" d="M13.24,84.314h23.182v22.72H13.24
	c-1.292,0-2.34-1.048-2.34-2.34V86.654C10.901,85.362,11.948,84.314,13.24,84.314z"/>
<path stroke="#000000" stroke-miterlimit="10" d="M10.184,81.438h23.842c0.464,0,0.84,0.376,0.84,0.84v1.196
	c0,0.464-0.376,0.84-0.84,0.84H10.184c-0.464,0-0.84-0.376-0.84-0.84v-1.196C9.344,81.814,9.72,81.438,10.184,81.438z"/>
<path stroke="#000000" stroke-miterlimit="10" d="M10.184,107.035h23.842c0.464,0,0.84,0.376,0.84,0.84v1.196
	c0,0.464-0.376,0.84-0.84,0.84H10.184c-0.464,0-0.84-0.376-0.84-0.84v-1.196C9.344,107.411,9.72,107.035,10.184,107.035z"/>
<path fill="#808285" d="M8.665,75.577H4.422c-1.292,0-2.34-1.048-2.34-2.34V55.196c0-1.292,1.048-2.34,2.34-2.34h4.243
	c1.292,0,2.34,1.048,2.34,2.34v18.041C11.004,74.529,9.957,75.577,8.665,75.577z"/>
<path fill="#808285" stroke="#000000" stroke-width="0.25" stroke-miterlimit="10" d="M13.24,52.856h23.182v22.72H13.24
	c-1.292,0-2.34-1.048-2.34-2.34V55.196C10.901,53.904,11.948,52.856,13.24,52.856z"/>
<path stroke="#000000" stroke-miterlimit="10" d="M10.184,49.981h23.842c0.464,0,0.84,0.376,0.84,0.84v1.196
	c0,0.464-0.376,0.84-0.84,0.84H10.184c-0.464,0-0.84-0.376-0.84-0.84V50.82C9.344,50.357,9.72,49.981,10.184,49.981z"/>
<path stroke="#000000" stroke-miterlimit="10" d="M10.184,75.577h23.842c0.464,0,0.84,0.376,0.84,0.84v1.196
	c0,0.464-0.376,0.84-0.84,0.84H10.184c-0.464,0-0.84-0.376-0.84-0.84v-1.196C9.344,75.953,9.72,75.577,10.184,75.577z"/>
<g>
</g>
<g>
</g>
<g>
</g>
<g>
</g>
<g>
</g>
<g>
</g>
</svg>
