<?xml version="1.0" encoding="utf-8"?>
<!-- Generator: Adobe Illustrator 24.0.1, SVG Export Plug-In . SVG Version: 6.00 Build 0)  -->
<svg version="1.1" id="Layer_1" xmlns="http://www.w3.org/2000/svg" xmlns:xlink="http://www.w3.org/1999/xlink" x="0px" y="0px"
	 viewBox="0 0 300 300" enable-background="new 0 0 300 300" xml:space="preserve">
<path fill="#FFFFFF" stroke="#000000" stroke-miterlimit="10" d="M201.973,248.592h-79.945c-5.538,0-10.027-4.489-10.027-10.027
	V55.098c0-5.538,4.489-10.027,10.027-10.027h79.945c5.538,0,10.027,4.489,10.027,10.027v183.467
	C212,244.102,207.511,248.592,201.973,248.592z"/>
<g>
	<path fill="#808285" d="M240.588,55.787h4.243c1.292,0,2.34,1.048,2.34,2.34v18.041c0,1.292-1.048,2.34-2.34,2.34h-4.243
		c-1.292,0-2.34-1.048-2.34-2.34V58.127C238.248,56.835,239.295,55.787,240.588,55.787z"/>
	<path fill="#808285" stroke="#000000" stroke-width="0.25" stroke-miterlimit="10" d="M236.012,78.508H212.83v-22.72h23.182
		c1.292,0,2.34,1.048,2.34,2.34v18.041C238.352,77.46,237.304,78.508,236.012,78.508z"/>
	<path stroke="#000000" stroke-width="0.25" stroke-miterlimit="10" d="M239.068,81.383h-23.842
		c-0.464,0-0.84-0.376-0.84-0.84v-1.196c0-0.464,0.376-0.84,0.84-0.84h23.842c0.464,0,0.84,0.376,0.84,0.84v1.196
		C239.908,81.007,239.532,81.383,239.068,81.383z"/>
	<path stroke="#000000" stroke-width="0.25" stroke-miterlimit="10" d="M239.068,55.787h-23.842
		c-0.464,0-0.84-0.376-0.84-0.84v-1.196c0-0.464,0.376-0.84,0.84-0.84h23.842c0.464,0,0.84,0.376,0.84,0.84v1.196
		C239.908,55.411,239.532,55.787,239.068,55.787z"/>
</g>
<g>
	<path fill="#808285" d="M240.588,87.245h4.243c1.292,0,2.34,1.048,2.34,2.34v18.041c0,1.292-1.048,2.34-2.34,2.34h-4.243
		c-1.292,0-2.34-1.048-2.34-2.34V89.585C238.248,88.293,239.295,87.245,240.588,87.245z"/>
	<path fill="#808285" stroke="#000000" stroke-width="0.25" stroke-miterlimit="10" d="M236.012,109.965H212.83v-22.72h23.182
		c1.292,0,2.34,1.048,2.34,2.34v18.041C238.352,108.918,237.304,109.965,236.012,109.965z"/>
	<path stroke="#000000" stroke-width="0.25" stroke-miterlimit="10" d="M239.068,112.841h-23.842
		c-0.464,0-0.84-0.376-0.84-0.84v-1.196c0-0.464,0.376-0.84,0.84-0.84h23.842c0.464,0,0.84,0.376,0.84,0.84v1.196
		C239.908,112.465,239.532,112.841,239.068,112.841z"/>
	<path stroke="#000000" stroke-width="0.25" stroke-miterlimit="10" d="M239.068,87.245h-23.842
		c-0.464,0-0.84-0.376-0.84-0.84v-1.196c0-0.464,0.376-0.84,0.84-0.84h23.842c0.464,0,0.84,0.376,0.84,0.84v1.196
		C239.908,86.869,239.532,87.245,239.068,87.245z"/>
</g>
<g>
	<path fill="#808285" d="M134.164,16.687v-4.243c0-1.292,1.048-2.34,2.34-2.34h18.041c1.292,0,2.34,1.048,2.34,2.34v4.243
		c0,1.292-1.048,2.34-2.34,2.34h-18.041C135.212,19.027,134.164,17.979,134.164,16.687z"/>
	<path fill="#808285" stroke="#000000" stroke-width="0.25" stroke-miterlimit="10" d="M156.885,21.263v23.182h-22.72V21.263
		c0-1.292,1.048-2.34,2.34-2.34h18.041C155.837,18.923,156.885,19.971,156.885,21.263z"/>
	<path stroke="#000000" stroke-width="0.25" stroke-miterlimit="10" d="M159.76,18.207v23.842
		c0,0.464-0.376,0.84-0.84,0.84h-1.196c-0.464,0-0.84-0.376-0.84-0.84V18.207c0-0.464,0.376-0.84,0.84-0.84h1.196
		C159.385,17.367,159.76,17.743,159.76,18.207z"/>
	<path stroke="#000000" stroke-width="0.25" stroke-miterlimit="10" d="M134.164,18.207v23.842
		c0,0.464-0.376,0.84-0.84,0.84h-1.196c-0.464,0-0.84-0.376-0.84-0.84V18.207c0-0.464,0.376-0.84,0.84-0.84h1.196
		C133.788,17.367,134.164,17.743,134.164,18.207z"/>
</g>
<g>
	<path fill="#808285" d="M165.622,16.687v-4.243c0-1.292,1.048-2.34,2.34-2.34h18.041c1.292,0,2.34,1.048,2.34,2.34v4.243
		c0,1.292-1.048,2.34-2.34,2.34h-18.041C166.67,19.027,165.622,17.979,165.622,16.687z"/>
	<path fill="#808285" stroke="#000000" stroke-width="0.25" stroke-miterlimit="10" d="M188.343,21.263v23.182h-22.72V21.263
		c0-1.292,1.048-2.34,2.34-2.34h18.041C187.295,18.923,188.343,19.971,188.343,21.263z"/>
	<path stroke="#000000" stroke-width="0.25" stroke-miterlimit="10" d="M191.218,18.207v23.842
		c0,0.464-0.376,0.84-0.84,0.84h-1.196c-0.464,0-0.84-0.376-0.84-0.84V18.207c0-0.464,0.376-0.84,0.84-0.84h1.196
		C190.842,17.367,191.218,17.743,191.218,18.207z"/>
	<path stroke="#000000" stroke-width="0.25" stroke-miterlimit="10" d="M165.622,18.207v23.842
		c0,0.464-0.376,0.84-0.84,0.84h-1.196c-0.464,0-0.84-0.376-0.84-0.84V18.207c0-0.464,0.376-0.84,0.84-0.84h1.196
		C165.246,17.367,165.622,17.743,165.622,18.207z"/>
</g>
<g>
	<path fill="#808285" d="M188.343,276.975v4.243c0,1.292-1.048,2.34-2.34,2.34h-18.041c-1.292,0-2.34-1.048-2.34-2.34v-4.243
		c0-1.292,1.048-2.34,2.34-2.34h18.041C187.295,274.635,188.343,275.683,188.343,276.975z"/>
	<path fill="#808285" stroke="#000000" stroke-width="0.25" stroke-miterlimit="10" d="M165.622,272.399v-23.182h22.72v23.182
		c0,1.292-1.048,2.34-2.34,2.34h-18.041C166.67,274.739,165.622,273.691,165.622,272.399z"/>
	<path stroke="#000000" stroke-width="0.25" stroke-miterlimit="10" d="M162.747,275.455v-23.842
		c0-0.464,0.376-0.84,0.84-0.84h1.196c0.464,0,0.84,0.376,0.84,0.84v23.842c0,0.464-0.376,0.84-0.84,0.84h-1.196
		C163.122,276.295,162.747,275.919,162.747,275.455z"/>
	<path stroke="#000000" stroke-width="0.25" stroke-miterlimit="10" d="M188.343,275.455v-23.842
		c0-0.464,0.376-0.84,0.84-0.84h1.196c0.464,0,0.84,0.376,0.84,0.84v23.842c0,0.464-0.376,0.84-0.84,0.84h-1.196
		C188.719,276.295,188.343,275.919,188.343,275.455z"/>
</g>
<g>
	<path fill="#808285" d="M156.885,276.975v4.243c0,1.292-1.048,2.34-2.34,2.34h-18.041c-1.292,0-2.34-1.048-2.34-2.34v-4.243
		c0-1.292,1.048-2.34,2.34-2.34h18.041C155.837,274.635,156.885,275.683,156.885,276.975z"/>
	<path fill="#808285" stroke="#000000" stroke-width="0.25" stroke-miterlimit="10" d="M134.164,272.399v-23.182h22.72v23.182
		c0,1.292-1.048,2.34-2.34,2.34h-18.041C135.212,274.739,134.164,273.691,134.164,272.399z"/>
	<path stroke="#000000" stroke-width="0.25" stroke-miterlimit="10" d="M131.289,275.455v-23.842
		c0-0.464,0.376-0.84,0.84-0.84h1.196c0.464,0,0.84,0.376,0.84,0.84v23.842c0,0.464-0.376,0.84-0.84,0.84h-1.196
		C131.665,276.295,131.289,275.919,131.289,275.455z"/>
	<path stroke="#000000" stroke-width="0.25" stroke-miterlimit="10" d="M156.885,275.455v-23.842
		c0-0.464,0.376-0.84,0.84-0.84h1.196c0.464,0,0.84,0.376,0.84,0.84v23.842c0,0.464-0.376,0.84-0.84,0.84h-1.196
		C157.261,276.295,156.885,275.919,156.885,275.455z"/>
</g>
<g>
	<path fill="#808285" d="M240.588,118.703h4.243c1.292,0,2.34,1.048,2.34,2.34v18.041c0,1.292-1.048,2.34-2.34,2.34h-4.243
		c-1.292,0-2.34-1.048-2.34-2.34v-18.041C238.248,119.75,239.295,118.703,240.588,118.703z"/>
	<path fill="#808285" stroke="#000000" stroke-width="0.25" stroke-miterlimit="10" d="M236.012,141.423H212.83v-22.72h23.182
		c1.292,0,2.34,1.048,2.34,2.34v18.041C238.352,140.376,237.304,141.423,236.012,141.423z"/>
	<path stroke="#000000" stroke-width="0.25" stroke-miterlimit="10" d="M239.068,144.299h-23.842
		c-0.464,0-0.84-0.376-0.84-0.84v-1.196c0-0.464,0.376-0.84,0.84-0.84h23.842c0.464,0,0.84,0.376,0.84,0.84v1.196
		C239.908,143.923,239.532,144.299,239.068,144.299z"/>
	<path stroke="#000000" stroke-width="0.25" stroke-miterlimit="10" d="M239.068,118.703h-23.842
		c-0.464,0-0.84-0.376-0.84-0.84v-1.196c0-0.464,0.376-0.84,0.84-0.84h23.842c0.464,0,0.84,0.376,0.84,0.84v1.196
		C239.908,118.327,239.532,118.703,239.068,118.703z"/>
</g>
<g>
	<path fill="#808285" d="M240.588,150.161h4.243c1.292,0,2.34,1.048,2.34,2.34v18.041c0,1.292-1.048,2.34-2.34,2.34h-4.243
		c-1.292,0-2.34-1.048-2.34-2.34V152.5C238.248,151.208,239.295,150.161,240.588,150.161z"/>
	<path fill="#808285" stroke="#000000" stroke-width="0.25" stroke-miterlimit="10" d="M236.012,172.881H212.83v-22.72h23.182
		c1.292,0,2.34,1.048,2.34,2.34v18.041C238.352,171.833,237.304,172.881,236.012,172.881z"/>
	<path stroke="#000000" stroke-width="0.25" stroke-miterlimit="10" d="M239.068,175.757h-23.842
		c-0.464,0-0.84-0.376-0.84-0.84v-1.196c0-0.464,0.376-0.84,0.84-0.84h23.842c0.464,0,0.84,0.376,0.84,0.84v1.196
		C239.908,175.381,239.532,175.757,239.068,175.757z"/>
	<path stroke="#000000" stroke-width="0.25" stroke-miterlimit="10" d="M239.068,150.161h-23.842
		c-0.464,0-0.84-0.376-0.84-0.84v-1.196c0-0.464,0.376-0.84,0.84-0.84h23.842c0.464,0,0.84,0.376,0.84,0.84v1.196
		C239.908,149.785,239.532,150.161,239.068,150.161z"/>
</g>
<g>
	<path fill="#808285" d="M240.588,181.618h4.243c1.292,0,2.34,1.048,2.34,2.34v18.041c0,1.292-1.048,2.34-2.34,2.34h-4.243
		c-1.292,0-2.34-1.048-2.34-2.34v-18.041C238.248,182.666,239.295,181.618,240.588,181.618z"/>
	<path fill="#808285" stroke="#000000" stroke-width="0.25" stroke-miterlimit="10" d="M236.012,204.339H212.83v-22.72h23.182
		c1.292,0,2.34,1.048,2.34,2.34v18.041C238.352,203.291,237.304,204.339,236.012,204.339z"/>
	<path stroke="#000000" stroke-width="0.25" stroke-miterlimit="10" d="M239.068,207.215h-23.842
		c-0.464,0-0.84-0.376-0.84-0.84v-1.196c0-0.464,0.376-0.84,0.84-0.84h23.842c0.464,0,0.84,0.376,0.84,0.84v1.196
		C239.908,206.839,239.532,207.215,239.068,207.215z"/>
	<path stroke="#000000" stroke-width="0.25" stroke-miterlimit="10" d="M239.068,181.618h-23.842
		c-0.464,0-0.84-0.376-0.84-0.84v-1.196c0-0.464,0.376-0.84,0.84-0.84h23.842c0.464,0,0.84,0.376,0.84,0.84v1.196
		C239.908,181.242,239.532,181.618,239.068,181.618z"/>
</g>
<g>
	<path fill="#808285" d="M240.588,213.076h4.243c1.292,0,2.34,1.048,2.34,2.34v18.041c0,1.292-1.048,2.34-2.34,2.34h-4.243
		c-1.292,0-2.34-1.048-2.34-2.34v-18.041C238.248,214.124,239.295,213.076,240.588,213.076z"/>
	<path fill="#808285" stroke="#000000" stroke-width="0.25" stroke-miterlimit="10" d="M236.012,235.797H212.83v-22.72h23.182
		c1.292,0,2.34,1.048,2.34,2.34v18.041C238.352,234.749,237.304,235.797,236.012,235.797z"/>
	<path stroke="#000000" stroke-width="0.25" stroke-miterlimit="10" d="M239.068,238.672h-23.842
		c-0.464,0-0.84-0.376-0.84-0.84v-1.196c0-0.464,0.376-0.84,0.84-0.84h23.842c0.464,0,0.84,0.376,0.84,0.84v1.196
		C239.908,238.296,239.532,238.672,239.068,238.672z"/>
	<path stroke="#000000" stroke-width="0.25" stroke-miterlimit="10" d="M239.068,213.076h-23.842
		c-0.464,0-0.84-0.376-0.84-0.84v-1.196c0-0.464,0.376-0.84,0.84-0.84h23.842c0.464,0,0.84,0.376,0.84,0.84v1.196
		C239.908,212.7,239.532,213.076,239.068,213.076z"/>
</g>
<g>
	<path fill="#808285" d="M83.165,232.866h-4.243c-1.292,0-2.34-1.048-2.34-2.34v-18.041c0-1.292,1.048-2.34,2.34-2.34h4.243
		c1.292,0,2.34,1.048,2.34,2.34v18.041C85.504,231.818,84.457,232.866,83.165,232.866z"/>
	<path fill="#808285" stroke="#000000" stroke-width="0.25" stroke-miterlimit="10" d="M87.74,210.145h23.182v22.72H87.74
		c-1.292,0-2.34-1.048-2.34-2.34v-18.041C85.401,211.193,86.448,210.145,87.74,210.145z"/>
	<path stroke="#000000" stroke-width="0.25" stroke-miterlimit="10" d="M84.684,207.27h23.842
		c0.464,0,0.84,0.376,0.84,0.84v1.196c0,0.464-0.376,0.84-0.84,0.84H84.684c-0.464,0-0.84-0.376-0.84-0.84v-1.196
		C83.844,207.646,84.22,207.27,84.684,207.27z"/>
	<path stroke="#000000" stroke-width="0.25" stroke-miterlimit="10" d="M84.684,232.866h23.842
		c0.464,0,0.84,0.376,0.84,0.84v1.196c0,0.464-0.376,0.84-0.84,0.84H84.684c-0.464,0-0.84-0.376-0.84-0.84v-1.196
		C83.844,233.242,84.22,232.866,84.684,232.866z"/>
</g>
<g>
	<path fill="#808285" d="M83.165,201.408h-4.243c-1.292,0-2.34-1.048-2.34-2.34v-18.041c0-1.292,1.048-2.34,2.34-2.34h4.243
		c1.292,0,2.34,1.048,2.34,2.34v18.041C85.504,200.36,84.457,201.408,83.165,201.408z"/>
	<path fill="#808285" stroke="#000000" stroke-width="0.25" stroke-miterlimit="10" d="M87.74,178.688h23.182v22.72H87.74
		c-1.292,0-2.34-1.048-2.34-2.34v-18.041C85.401,179.735,86.448,178.688,87.74,178.688z"/>
	<path stroke="#000000" stroke-width="0.25" stroke-miterlimit="10" d="M84.684,175.812h23.842
		c0.464,0,0.84,0.376,0.84,0.84v1.196c0,0.464-0.376,0.84-0.84,0.84H84.684c-0.464,0-0.84-0.376-0.84-0.84v-1.196
		C83.844,176.188,84.22,175.812,84.684,175.812z"/>
	<path stroke="#000000" stroke-width="0.25" stroke-miterlimit="10" d="M84.684,201.408h23.842
		c0.464,0,0.84,0.376,0.84,0.84v1.196c0,0.464-0.376,0.84-0.84,0.84H84.684c-0.464,0-0.84-0.376-0.84-0.84v-1.196
		C83.844,201.784,84.22,201.408,84.684,201.408z"/>
</g>
<g>
	<path fill="#808285" d="M83.165,169.95h-4.243c-1.292,0-2.34-1.048-2.34-2.34V149.57c0-1.292,1.048-2.34,2.34-2.34h4.243
		c1.292,0,2.34,1.048,2.34,2.34v18.041C85.504,168.903,84.457,169.95,83.165,169.95z"/>
	<path fill="#808285" stroke="#000000" stroke-width="0.25" stroke-miterlimit="10" d="M87.74,147.23h23.182v22.72H87.74
		c-1.292,0-2.34-1.048-2.34-2.34V149.57C85.401,148.277,86.448,147.23,87.74,147.23z"/>
	<path stroke="#000000" stroke-width="0.25" stroke-miterlimit="10" d="M84.684,144.354h23.842
		c0.464,0,0.84,0.376,0.84,0.84v1.196c0,0.464-0.376,0.84-0.84,0.84H84.684c-0.464,0-0.84-0.376-0.84-0.84v-1.196
		C83.844,144.73,84.22,144.354,84.684,144.354z"/>
	<path stroke="#000000" stroke-width="0.25" stroke-miterlimit="10" d="M84.684,169.95h23.842
		c0.464,0,0.84,0.376,0.84,0.84v1.196c0,0.464-0.376,0.84-0.84,0.84H84.684c-0.464,0-0.84-0.376-0.84-0.84v-1.196
		C83.844,170.326,84.22,169.95,84.684,169.95z"/>
</g>
<g>
	<path fill="#808285" d="M83.165,138.492h-4.243c-1.292,0-2.34-1.048-2.34-2.34v-18.041c0-1.292,1.048-2.34,2.34-2.34h4.243
		c1.292,0,2.34,1.048,2.34,2.34v18.041C85.504,137.445,84.457,138.492,83.165,138.492z"/>
	<path fill="#808285" stroke="#000000" stroke-width="0.25" stroke-miterlimit="10" d="M87.74,115.772h23.182v22.72H87.74
		c-1.292,0-2.34-1.048-2.34-2.34v-18.041C85.401,116.819,86.448,115.772,87.74,115.772z"/>
	<path stroke="#000000" stroke-width="0.25" stroke-miterlimit="10" d="M84.684,112.896h23.842
		c0.464,0,0.84,0.376,0.84,0.84v1.196c0,0.464-0.376,0.84-0.84,0.84H84.684c-0.464,0-0.84-0.376-0.84-0.84v-1.196
		C83.844,113.272,84.22,112.896,84.684,112.896z"/>
	<path stroke="#000000" stroke-width="0.25" stroke-miterlimit="10" d="M84.684,138.492h23.842
		c0.464,0,0.84,0.376,0.84,0.84v1.196c0,0.464-0.376,0.84-0.84,0.84H84.684c-0.464,0-0.84-0.376-0.84-0.84v-1.196
		C83.844,138.868,84.22,138.492,84.684,138.492z"/>
</g>
<g>
	<path fill="#808285" d="M83.165,107.035h-4.243c-1.292,0-2.34-1.048-2.34-2.34V86.654c0-1.292,1.048-2.34,2.34-2.34h4.243
		c1.292,0,2.34,1.048,2.34,2.34v18.041C85.504,105.987,84.457,107.035,83.165,107.035z"/>
	<path fill="#808285" stroke="#000000" stroke-width="0.25" stroke-miterlimit="10" d="M87.74,84.314h23.182v22.72H87.74
		c-1.292,0-2.34-1.048-2.34-2.34V86.654C85.401,85.362,86.448,84.314,87.74,84.314z"/>
	<path stroke="#000000" stroke-width="0.25" stroke-miterlimit="10" d="M84.684,81.438h23.842
		c0.464,0,0.84,0.376,0.84,0.84v1.196c0,0.464-0.376,0.84-0.84,0.84H84.684c-0.464,0-0.84-0.376-0.84-0.84v-1.196
		C83.844,81.814,84.22,81.438,84.684,81.438z"/>
	<path stroke="#000000" stroke-width="0.25" stroke-miterlimit="10" d="M84.684,107.035h23.842
		c0.464,0,0.84,0.376,0.84,0.84v1.196c0,0.464-0.376,0.84-0.84,0.84H84.684c-0.464,0-0.84-0.376-0.84-0.84v-1.196
		C83.844,107.411,84.22,107.035,84.684,107.035z"/>
</g>
<g>
	<path fill="#808285" d="M83.165,75.577h-4.243c-1.292,0-2.34-1.048-2.34-2.34V55.196c0-1.292,1.048-2.34,2.34-2.34h4.243
		c1.292,0,2.34,1.048,2.34,2.34v18.041C85.504,74.529,84.457,75.577,83.165,75.577z"/>
	<path fill="#808285" stroke="#000000" stroke-width="0.25" stroke-miterlimit="10" d="M87.74,52.856h23.182v22.72H87.74
		c-1.292,0-2.34-1.048-2.34-2.34V55.196C85.401,53.904,86.448,52.856,87.74,52.856z"/>
	<path stroke="#000000" stroke-width="0.25" stroke-miterlimit="10" d="M84.684,49.981h23.842
		c0.464,0,0.84,0.376,0.84,0.84v1.196c0,0.464-0.376,0.84-0.84,0.84H84.684c-0.464,0-0.84-0.376-0.84-0.84V50.82
		C83.844,50.357,84.22,49.981,84.684,49.981z"/>
	<path stroke="#000000" stroke-width="0.25" stroke-miterlimit="10" d="M84.684,75.577h23.842
		c0.464,0,0.84,0.376,0.84,0.84v1.196c0,0.464-0.376,0.84-0.84,0.84H84.684c-0.464,0-0.84-0.376-0.84-0.84v-1.196
		C83.844,75.953,84.22,75.577,84.684,75.577z"/>
</g>
<g>
</g>
<g>
</g>
<g>
</g>
<g>
</g>
<g>
</g>
<g>
</g>
</svg>
