<?xml version="1.0" encoding="utf-8"?>
<!-- Generator: Adobe Illustrator 24.0.1, SVG Export Plug-In . SVG Version: 6.00 Build 0)  -->
<svg version="1.1" xmlns="http://www.w3.org/2000/svg" xmlns:xlink="http://www.w3.org/1999/xlink" x="0px" y="0px"
	 viewBox="0 0 876 732" enable-background="new 0 0 876 732" xml:space="preserve">
<g id="Layer_1">
	<polygon fill="#FEBE8C" points="200,642 197,732 428,732 423,643.111 	"/>
	<path fill="#E97777" d="M716.844,412.889l-16.494-35.433c-2.492-5.353-6.912-3.838-12.265-1.346l-165.924,72.499
		c-5.008,2.331-10.961,0.212-13.37-4.76l-22.166-45.758l-31.583-65.198c-0.624-1.288-1.543-2.335-2.635-3.106l0.034-0.315
		l-1.739-0.599c-0.23-0.091-0.463-0.171-0.7-0.241l-68.113-23.487c-0.41-0.141-0.855-0.142-1.266-0.002l-71.305,24.301
		c0.851-0.643,1.032-1.846,0.401-2.706c-4.571-6.229-21.699-29.063-26.647-28.357c0,0-100.548,14.553-110.003,26.504c0,0,0,0,0,0
		c-1.795,0.662-3.195,2.239-3.531,4.262L130,581c-0.192,1.185-0.48,2.118,0.72,2.121l47.961,0.112
		c0.956,0.002,1.773-0.689,1.93-1.632L201,439c1-5,10-6,9,1l-11.201,139.528c0,0.309,0.078,0.598,0.206,0.857l0.822,61.634
		c0.096,7.217,5.939,13.032,13.156,13.084c39.744,0.287,159.388,0.918,198.02-1.513c6.797-0.428,12.164-5.921,12.425-12.726
		l2.436-63.327l15.485-144.525c0.209-1.95,2.842-2.408,3.697-0.643l41.267,85.189l0.187,0.403c2.492,5.353,8.851,7.673,14.205,5.181
		l202.927-102.03C708.007,419.074,718.881,417.265,716.844,412.889z"/>
	<path fill="#DC3535" d="M283.074,299.199"/>
	<path fill="#EFB3A8" d="M385.557,263.886l-3.889,41.954l-32.317,28.667c-10.569,9.375-26.769,8.271-35.968-2.45l-31.126-32.858
		l14.316-50.729"/>
	<path opacity="0.44" d="M375.194,279.952l-24.869,16.247c-0.153,0.1-0.311,0.192-0.474,0.274
		c-9.044,4.531-20.523,2.728-27.575-4.365l-22.297-24.329c-2.545-2.777-0.582-7.256,3.185-7.265l34.873-0.09
		c0.469-0.001,0.935,0.074,1.379,0.221l34.774,11.563C377.634,273.352,378.232,277.967,375.194,279.952z"/>
	<g>
		<path fill="#EFB3A8" d="M274.014,173.616c-1.613,16.702-3.527,44.252,7.554,66.49c12.493,25.073,39.211,44.065,58.042,45.883
			c17.279,1.668,46.52-10.104,62.913-30.094c17.318-21.118,21.367-51.027,23.13-69.282c3.431-35.533-31.714-91.839-67.248-95.27
			C322.872,87.913,277.445,138.083,274.014,173.616z"/>
	</g>
	<g>
		<path fill="#C69C6D" d="M250.455,133.529c-3.89-5.432-5.913-12.237-5.22-19.41c0.726-7.52,4.303-14.074,9.553-18.708
			c4.616-11.487,16.373-19.067,29.32-17.817c2.385,0.23,4.67,0.751,6.831,1.516c5.211-10.111,16.199-16.555,28.212-15.395
			c4.245,0.41,8.18,1.734,11.639,3.748c8.567-7.37,20.003-11.378,32.14-10.206c12.679,1.224,23.531,7.847,30.514,17.37
			c14.313,3.782,24.553,16.648,24.922,31.553c13.641,1.4,23.61,13.552,22.29,27.22c-0.628,6.506-3.704,12.183-8.224,16.216
			c12.282,2.576,20.922,14.031,19.688,26.814c-1.325,13.719-13.52,23.766-27.238,22.441c-5.98-0.577-11.261-3.221-15.208-7.155
			c-2.8,0.747-5.777,1.019-8.831,0.724c-12.286-1.186-21.621-11.093-22.486-23.003c-2.648,0.459-5.399,0.582-8.203,0.312
			c-8.427-0.814-15.727-4.964-20.72-11.016c-6.059,4.985-14.018,7.662-22.445,6.848c-7.153-0.691-13.488-3.791-18.295-8.413
			c-3.166,7.22-9.188,12.795-16.52,15.441c-0.184,0.222-0.375,0.437-0.566,0.652c2.945,5.021,4.398,10.98,3.795,17.218
			c-0.448,4.638-1.985,8.905-4.324,12.586c5.379,5.79,8.356,13.763,7.537,22.248c-1.52,15.743-15.514,27.272-31.257,25.752
			c-15.743-1.52-27.272-15.514-25.752-31.257c0.448-4.638,1.985-8.905,4.324-12.586c-5.379-5.79-8.356-13.763-7.537-22.248
			c0.602-6.237,3.168-11.808,7.02-16.173c-2.945-5.021-4.398-10.98-3.795-17.218C242.31,144.409,245.598,138.117,250.455,133.529z"
			/>
	</g>
	<path fill="#EFB3A8" d="M745.36,352.382l-6.691,41.108c-0.512,3.587-1.772,5.394-3.744,8.434
		c-3.321,5.117-9.047,2.308-15.748,2.823c-10.637,0.818-26.183-60.547-26.183-60.547L745.36,352.382z"/>
	<g>
		<path fill="#9B9B9B" d="M656.279,422.748h62.165c3.715,0,6.872-2.714,7.429-6.387l15.72-103.611
			c0.69-4.547-2.83-8.641-7.429-8.641h-57.878c-3.601,0-6.695,2.554-8.196,6.09l-20.008,103.611
			C648.006,418.444,651.558,422.748,656.279,422.748z"/>
	</g>
	<g>
		<path fill="#7F7F7F" d="M659.552,426.839h62.165c3.715,0,6.872-2.714,7.429-6.387l15.72-103.611
			c0.69-4.547-2.83-8.642-7.429-8.642H679.56c-3.601,0-6.695,2.554-7.378,6.09L652.174,417.9
			C651.279,422.535,654.831,426.839,659.552,426.839z"/>
	</g>
	<path fill="#EFB3A8" d="M743.723,363.019l1.636-9.818h-28.002c-2.711,0-4.909,2.198-4.909,4.909l0,0
		c0,2.711,2.198,4.909,4.909,4.909H743.723z"/>
	<path fill="#EFB3A8" d="M734.368,350.707l10.992,2.493l2.557-13.267c0.519-2.336-1.44-4.758-4.375-5.411l0,0
		c-2.935-0.652-5.736,0.712-6.255,3.048L734.368,350.707z"/>
	<path fill="#EFB3A8" d="M740.45,381.019l1.636-8.182l-25.595,0.095c-2.233,0-4.043,1.81-4.043,4.043l0,0
		c0,2.233,1.81,4.043,4.043,4.043H740.45z"/>
	<path fill="#EFB3A8" d="M742.087,372.019l0.818-8.226l-32.592-0.229c-2.787,0-5.046,1.893-5.046,4.227l0,0
		c0,2.335,2.259,4.227,5.046,4.227H742.087z"/>
	<path fill="#EFB3A8" d="M743.099,349.301l0.967,1.343c0.56,0.778,0.11,1.897-0.816,2.025l-7.958,1.105
		c-0.862,0.12-1.569-0.705-1.345-1.58c0.245-0.959,0.616-2.276,1.16-3.903c1.09-3.263,6.542-0.016,7.656,0.689
		C742.894,349.064,743.007,349.172,743.099,349.301z"/>
	<path fill="#EFB3A8" d="M721.632,390.019h17.182v-8.182h-17.182c-2.259,0-4.091,1.832-4.091,4.091l0,0
		C717.541,388.188,719.372,390.019,721.632,390.019z"/>
	<g opacity="0.43">
		<polygon points="664.538,335.404 666.39,337.591 668.609,326.228 666.8,323.816 		"/>
	</g>
	<g opacity="0.43">
		<polygon points="662.083,348.495 663.935,350.683 666.154,339.319 664.346,336.907 		"/>
	</g>
	<path fill="#DC3535" d="M283.074,299.199"/>
	
		<ellipse transform="matrix(0.0961 -0.9954 0.9954 0.0961 147.1872 568.5359)" fill="#3D3837" cx="386.632" cy="203.226" rx="8.591" ry="8.393"/>
	
		<ellipse transform="matrix(0.0961 -0.9954 0.9954 0.0961 97.9296 510.6474)" fill="#3D3837" cx="330.13" cy="201.403" rx="8.591" ry="8.393"/>
	<g>
		<path fill="#E28174" d="M357.832,208.515l-2.962,11.382c-0.271,1.042,0.372,2.111,1.436,2.388l12.771,3.323
			c1.618,0.421,2.993-1.179,2.3-2.678L364.475,208C363.09,205.005,358.656,205.349,357.832,208.515z"/>
	</g>
	<path fill="#3D3837" d="M335.933,245.161c-0.347,3.598,6.846,7.237,16.066,8.127c9.221,0.89,16.977-1.305,17.325-4.903
		s-7.392-0.389-16.612-1.279S336.281,241.563,335.933,245.161z"/>
	<g opacity="0.43">
		<circle cx="683.994" cy="318.017" r="6.546"/>
	</g>
	<g opacity="0.43">
		<circle cx="681.54" cy="332.745" r="6.546"/>
	</g>
	<g opacity="0.43">
		<circle cx="693.404" cy="326.609" r="4.5"/>
	</g>
	<path fill="#CEA284" d="M220,655c0,0,3.966,41.032-22.017,47.516l1.964-58.908C199.946,643.609,201.5,657.395,220,655z"/>
	<polyline opacity="0.19" points="199.463,614.698 226.75,655.194 198,655 	"/>
	<path fill="#E97777" d="M206,699l-76-116l48.431-10.96c0,0,39.569,92.71,41.569,94.835S214,697,206,699z"/>
	<path opacity="0.19" d="M441,434c0,0-64,96-18,208C423,642,437,436,441,434z"/>
</g>
<g id="Layer_2">
	<g>
	</g>
	<g>
	</g>
	<g>
	</g>
	<g>
	</g>
	<g>
	</g>
	<g>
	</g>
	<g>
	</g>
	<g>
	</g>
	<g>
	</g>
	<g>
	</g>
	<g>
	</g>
	<g>
	</g>
	<g>
	</g>
	<g>
	</g>
	<g>
	</g>
</g>
</svg>
