<?xml version="1.0" encoding="utf-8"?>
<!-- Generator: Adobe Illustrator 24.0.1, SVG Export Plug-In . SVG Version: 6.00 Build 0)  -->
<svg version="1.1" id="Layer_1" xmlns="http://www.w3.org/2000/svg" xmlns:xlink="http://www.w3.org/1999/xlink" x="0px" y="0px"
	 viewBox="0 0 300 117.5" enable-background="new 0 0 300 117.5" xml:space="preserve">
<path fill="#FFFFFF" stroke="#000000" stroke-width="3" stroke-miterlimit="10" d="M244.939,104.25H53.771
	c-8.825,0-15.979-7.154-15.979-15.979V28.729c0-8.825,7.154-15.979,15.979-15.979h191.168c8.825,0,15.979,7.154,15.979,15.979
	v59.541C260.918,97.096,253.764,104.25,244.939,104.25z"/>
<rect x="10.063" y="35.967" fill="#FFFFFF" stroke="#000000" stroke-width="3" stroke-miterlimit="10" width="13.687" height="45.066"/>
<rect x="23.75" y="35.967" fill="#FFFFFF" stroke="#000000" stroke-width="3" stroke-miterlimit="10" width="13.687" height="45.066"/>
<rect x="261.563" y="35.967" fill="#FFFFFF" stroke="#000000" stroke-width="3" stroke-miterlimit="10" width="13.687" height="45.066"/>
<rect x="275.25" y="35.967" fill="#FFFFFF" stroke="#000000" stroke-width="3" stroke-miterlimit="10" width="13.687" height="45.066"/>
<g>
	<path d="M131.668,59.688c0.533,0.273,1.352,0.546,2.197,0.546c0.91,0,1.391-0.377,1.391-0.949c0-0.546-0.416-0.857-1.469-1.235
		c-1.456-0.507-2.405-1.313-2.405-2.587c0-1.495,1.248-2.639,3.315-2.639c0.988,0,1.716,0.208,2.236,0.442l-0.442,1.599
		c-0.351-0.169-0.975-0.416-1.833-0.416s-1.274,0.39-1.274,0.845c0,0.559,0.494,0.806,1.625,1.235
		c1.547,0.572,2.275,1.378,2.275,2.613c0,1.469-1.131,2.717-3.536,2.717c-1.001,0-1.989-0.26-2.483-0.533L131.668,59.688z"/>
	<path d="M140.313,54.63h-2.354v-1.664h6.734v1.664h-2.392v7.098h-1.989V54.63z"/>
	<path d="M146.852,59.479l-0.624,2.249h-2.054l2.678-8.762h2.6l2.718,8.762h-2.133l-0.676-2.249H146.852z M149.075,57.998
		l-0.546-1.859c-0.156-0.52-0.312-1.17-0.442-1.69h-0.026c-0.13,0.52-0.26,1.183-0.403,1.69l-0.52,1.859H149.075z"/>
	<path d="M160.334,61.325c-0.611,0.208-1.769,0.494-2.926,0.494c-1.599,0-2.756-0.403-3.562-1.183
		c-0.807-0.754-1.248-1.898-1.235-3.186c0.013-2.912,2.132-4.576,5.005-4.576c1.132,0,2.003,0.221,2.432,0.429l-0.416,1.586
		c-0.481-0.208-1.079-0.377-2.041-0.377c-1.651,0-2.899,0.936-2.899,2.834c0,1.807,1.131,2.874,2.756,2.874
		c0.455,0,0.819-0.053,0.976-0.13v-1.833h-1.353V56.71h3.264V61.325z"/>
	<path d="M167.094,58.023h-3.225v2.08h3.602v1.625h-5.591v-8.762h5.408v1.625h-3.419v1.82h3.225V58.023z"/>
</g>
<g>
</g>
<g>
</g>
<g>
</g>
<g>
</g>
<g>
</g>
<g>
</g>
</svg>
