<?xml version="1.0" encoding="utf-8"?>
<!-- Generator: Adobe Illustrator 24.0.1, SVG Export Plug-In . SVG Version: 6.00 Build 0)  -->
<svg version="1.1" id="Layer_1" xmlns="http://www.w3.org/2000/svg" xmlns:xlink="http://www.w3.org/1999/xlink" x="0px" y="0px"
	 viewBox="0 0 300 300" enable-background="new 0 0 300 300" xml:space="preserve">
<path fill="none" stroke="#000000" stroke-width="3" stroke-miterlimit="10" d="M200.434,216.596h-98.735
	c-7.404,0-13.406-6.002-13.406-13.406V95.66c0-7.404,6.002-13.406,13.406-13.406h98.735c7.404,0,13.406,6.002,13.406,13.406v107.53
	C213.84,210.594,207.838,216.596,200.434,216.596z"/>
<g>
	
		<rect x="136.749" y="31.611"  stroke="#000000" stroke-width="3" stroke-miterlimit="10" width="29.59" height="13.482"/>
	<path  stroke="#000000" stroke-width="3" stroke-miterlimit="10" d="M166.593,76.552h-30.098
		c-6.765,0-12.25-5.485-12.25-12.25V45.093h54.598v19.209C178.843,71.067,173.358,76.552,166.593,76.552z"/>
	<path  stroke="#000000" stroke-width="3" stroke-miterlimit="10" d="M130.37,19.354h42.348
		c3.383,0,6.125,2.742,6.125,6.125v6.132h-54.598v-6.132C124.245,22.097,126.987,19.354,130.37,19.354z"/>
	
		<rect x="119.663" y="36.513"  stroke="#000000" stroke-width="3" stroke-miterlimit="10" width="7.254" height="25.33"/>
	
		<rect x="175.216" y="36.513"  stroke="#000000" stroke-width="3" stroke-miterlimit="10" width="7.254" height="25.33"/>
</g>
<g>
	
		<rect x="31.653" y="142.104" transform="matrix(6.123234e-17 -1 1 6.123234e-17 -100.9187 195.888)" stroke="#000000" stroke-width="3" stroke-miterlimit="10" width="31.663" height="12.6"/>
	<path  stroke="#000000" stroke-width="3" stroke-miterlimit="10" d="M83.183,131.442v33.923
		c0,6.765-5.485,12.25-12.25,12.25H53.784v-58.423h17.149C77.699,119.192,83.183,124.676,83.183,131.442z"/>
	<path  stroke="#000000" stroke-width="3" stroke-miterlimit="10" d="M29.731,171.49v-46.173
		c0-3.383,2.742-6.125,6.125-6.125h5.329v58.423h-5.329C32.473,177.615,29.731,174.873,29.731,171.49z"/>
	
		<rect x="53.721" y="166.8" transform="matrix(6.123234e-17 -1 1 6.123234e-17 -121.0338 236.2387)" stroke="#000000" stroke-width="3" stroke-miterlimit="10" width="7.763" height="23.672"/>
	
		<rect x="53.721" y="107.356" transform="matrix(6.123234e-17 -1 1 6.123234e-17 -61.5894 176.7943)" stroke="#000000" stroke-width="3" stroke-miterlimit="10" width="7.763" height="23.672"/>
</g>
<g>
	
		<rect x="134.728" y="253.055" transform="matrix(-1 -1.224647e-16 1.224647e-16 -1 299.0455 519.5915)" stroke="#000000" stroke-width="3" stroke-miterlimit="10" width="29.59" height="13.482"/>
	<path  stroke="#000000" stroke-width="3" stroke-miterlimit="10" d="M134.474,221.596h30.098
		c6.765,0,12.25,5.485,12.25,12.25v19.209h-54.598v-19.209C122.224,227.081,127.708,221.596,134.474,221.596z"/>
	<path  stroke="#000000" stroke-width="3" stroke-miterlimit="10" d="M170.697,278.793h-42.348
		c-3.383,0-6.125-2.742-6.125-6.125v-6.132h54.598v6.132C176.822,276.051,174.08,278.793,170.697,278.793z"/>
	
		<rect x="174.149" y="236.304" transform="matrix(-1 -1.224647e-16 1.224647e-16 -1 355.5526 497.9382)" stroke="#000000" stroke-width="3" stroke-miterlimit="10" width="7.254" height="25.33"/>
	
		<rect x="118.597" y="236.304" transform="matrix(-1 -1.224647e-16 1.224647e-16 -1 244.4474 497.9382)" stroke="#000000" stroke-width="3" stroke-miterlimit="10" width="7.254" height="25.33"/>
</g>
<g>
	
		<rect x="238.817" y="144.146" transform="matrix(-1.836970e-16 1 -1 -1.836970e-16 405.0942 -104.202)" stroke="#000000" stroke-width="3" stroke-miterlimit="10" width="31.663" height="12.6"/>
	<path  stroke="#000000" stroke-width="3" stroke-miterlimit="10" d="M218.949,167.408v-33.923
		c0-6.765,5.485-12.25,12.25-12.25h17.149v58.423h-17.149C224.434,179.658,218.949,174.173,218.949,167.408z"/>
	<path  stroke="#000000" stroke-width="3" stroke-miterlimit="10" d="M272.402,127.36v46.173
		c0,3.383-2.742,6.125-6.125,6.125h-5.329v-58.423h5.329C269.66,121.235,272.402,123.977,272.402,127.36z"/>
	
		<rect x="240.649" y="108.377" transform="matrix(-1.836970e-16 1 -1 -1.836970e-16 364.7435 -124.3171)" stroke="#000000" stroke-width="3" stroke-miterlimit="10" width="7.763" height="23.672"/>
	
		<rect x="240.649" y="167.822" transform="matrix(-1.836970e-16 1 -1 -1.836970e-16 424.1879 -64.8726)" stroke="#000000" stroke-width="3" stroke-miterlimit="10" width="7.763" height="23.672"/>
</g>
<g>
</g>
<g>
</g>
<g>
</g>
<g>
</g>
<g>
</g>
<g>
</g>
</svg>
