<?xml version="1.0" encoding="utf-8"?>
<!-- Generator: Adobe Illustrator 24.0.1, SVG Export Plug-In . SVG Version: 6.00 Build 0)  -->
<svg version="1.1" id="Layer_1" xmlns="http://www.w3.org/2000/svg" xmlns:xlink="http://www.w3.org/1999/xlink" x="0px" y="0px"
	viewBox="0 0 300 300" enable-background="new 0 0 300 300" xml:space="preserve">
	<path stroke="#000000" stroke-width="3" stroke-miterlimit="10" d="M200.434,214.413h-98.735
	c-7.404,0-13.406-6.002-13.406-13.406V93.477c0-7.404,6.002-13.406,13.406-13.406h98.735c7.404,0,13.406,6.002,13.406,13.406v107.53
	C213.84,208.411,207.838,214.413,200.434,214.413z" />
	<g>
		<path fill="#808285" d="M30.169,170.172H16.84c-1.292,0-2.34-1.048-2.34-2.34v-41.18c0-1.292,1.048-2.34,2.34-2.34h13.329
		c1.292,0,2.34,1.048,2.34,2.34v41.18C32.509,169.124,31.461,170.172,30.169,170.172z" />
		<path fill="#808285" stroke="#000000" stroke-width="0.25" stroke-miterlimit="10" d="M34.639,124.312h49.174v45.859H34.639
		c-1.292,0-2.34-1.048-2.34-2.34v-41.18C32.299,125.36,33.347,124.312,34.639,124.312z" />
		<path stroke="#000000" stroke-width="2" stroke-miterlimit="10" d="M29.998,118.508h49.834
		c0.464,0,0.84,0.376,0.84,0.84v4.125c0,0.464-0.376,0.84-0.84,0.84H29.998c-0.464,0-0.84-0.376-0.84-0.84v-4.125
		C29.158,118.884,29.534,118.508,29.998,118.508z" />
		<path stroke="#000000" stroke-width="2" stroke-miterlimit="10" d="M29.998,170.172h49.834
		c0.464,0,0.84,0.376,0.84,0.84v4.125c0,0.464-0.376,0.84-0.84,0.84H29.998c-0.464,0-0.84-0.376-0.84-0.84v-4.125
		C29.158,170.548,29.534,170.172,29.998,170.172z" />
	</g>
	<g>
		<path fill="#808285" d="M173.996,273.595v13.329c0,1.292-1.048,2.34-2.34,2.34h-41.18c-1.292,0-2.34-1.048-2.34-2.34v-13.329
		c0-1.292,1.048-2.34,2.34-2.34h41.18C172.949,271.255,173.996,272.303,173.996,273.595z" />
		<path fill="#808285" stroke="#000000" stroke-width="0.25" stroke-miterlimit="10" d="M128.137,269.125v-49.174h45.859v49.174
		c0,1.292-1.048,2.34-2.34,2.34h-41.18C129.184,271.465,128.137,270.417,128.137,269.125z" />
		<path stroke="#000000" stroke-width="2" stroke-miterlimit="10" d="M122.332,273.766v-49.834
		c0-0.464,0.376-0.84,0.84-0.84h4.125c0.464,0,0.84,0.376,0.84,0.84v49.834c0,0.464-0.376,0.84-0.84,0.84h-4.125
		C122.708,274.606,122.332,274.23,122.332,273.766z" />
		<path stroke="#000000" stroke-width="2" stroke-miterlimit="10" d="M173.996,273.766v-49.834
		c0-0.464,0.376-0.84,0.84-0.84h4.125c0.464,0,0.84,0.376,0.84,0.84v49.834c0,0.464-0.376,0.84-0.84,0.84h-4.125
		C174.372,274.606,173.996,274.23,173.996,273.766z" />
	</g>
	<g>
		<path fill="#808285" d="M128.137,20.889V7.56c0-1.292,1.048-2.34,2.34-2.34h41.18c1.292,0,2.34,1.048,2.34,2.34v13.329
		c0,1.292-1.048,2.34-2.34,2.34h-41.18C129.184,23.229,128.137,22.181,128.137,20.889z" />
		<path fill="#808285" stroke="#000000" stroke-width="0.25" stroke-miterlimit="10" d="M173.996,25.359v49.174h-45.859V25.359
		c0-1.292,1.048-2.34,2.34-2.34h41.18C172.949,23.019,173.996,24.067,173.996,25.359z" />
		<path stroke="#000000" stroke-width="2" stroke-miterlimit="10" d="M179.8,20.718v49.834c0,0.464-0.376,0.84-0.84,0.84
		h-4.125c-0.464,0-0.84-0.376-0.84-0.84V20.718c0-0.464,0.376-0.84,0.84-0.84h4.125C179.424,19.878,179.8,20.254,179.8,20.718z" />
		<path stroke="#000000" stroke-width="2" stroke-miterlimit="10" d="M128.137,20.718v49.834
		c0,0.464-0.376,0.84-0.84,0.84h-4.125c-0.464,0-0.84-0.376-0.84-0.84V20.718c0-0.464,0.376-0.84,0.84-0.84h4.125
		C127.761,19.878,128.137,20.254,128.137,20.718z" />
	</g>
	<g>
		<path fill="#808285" d="M272.054,124.312h13.329c1.292,0,2.34,1.048,2.34,2.34v41.18c0,1.292-1.048,2.34-2.34,2.34h-13.329
		c-1.292,0-2.34-1.048-2.34-2.34v-41.18C269.714,125.36,270.762,124.312,272.054,124.312z" />
		<path fill="#808285" stroke="#000000" stroke-width="0.25" stroke-miterlimit="10" d="M267.584,170.172H218.41v-45.859h49.174
		c1.292,0,2.34,1.048,2.34,2.34v41.18C269.923,169.124,268.876,170.172,267.584,170.172z" />
		<path stroke="#000000" stroke-width="2" stroke-miterlimit="10" d="M272.225,175.976h-49.834
		c-0.464,0-0.84-0.376-0.84-0.84v-4.125c0-0.464,0.376-0.84,0.84-0.84h49.834c0.464,0,0.84,0.376,0.84,0.84v4.125
		C273.064,175.6,272.688,175.976,272.225,175.976z" />
		<path stroke="#000000" stroke-width="2" stroke-miterlimit="10" d="M272.225,124.312h-49.834
		c-0.464,0-0.84-0.376-0.84-0.84v-4.125c0-0.464,0.376-0.84,0.84-0.84h49.834c0.464,0,0.84,0.376,0.84,0.84v4.125
		C273.064,123.936,272.688,124.312,272.225,124.312z" />
	</g>
</svg>