<?xml version="1.0" encoding="utf-8"?>
<!-- Generator: Adobe Illustrator 24.0.1, SVG Export Plug-In . SVG Version: 6.00 Build 0)  -->
<svg version="1.1" id="Layer_1" xmlns="http://www.w3.org/2000/svg" xmlns:xlink="http://www.w3.org/1999/xlink" x="0px" y="0px"
	 viewBox="0 0 13.028 300" enable-background="new 0 0 13.028 300" xml:space="preserve">
<g>
	<path d="M9.027,208.979c0.159-0.25,0.409-0.83,0.409-1.439c0-1.129-0.72-1.479-1.259-1.469c-0.91,0.01-1.299,0.83-1.299,1.679
		v0.489h-0.66v-0.489c0-0.64-0.33-1.449-1.1-1.449c-0.52,0-0.979,0.33-0.979,1.14c0,0.52,0.23,1.02,0.43,1.299l-0.64,0.23
		c-0.25-0.34-0.5-1-0.5-1.699c0-1.279,0.76-1.859,1.549-1.859c0.669,0,1.239,0.4,1.529,1.199h0.02
		c0.16-0.799,0.76-1.449,1.669-1.449c1.04,0,1.949,0.811,1.949,2.369c0,0.729-0.23,1.369-0.439,1.689L9.027,208.979z"/>
	<path d="M3.39,203.748c-0.08-0.529-0.14-1.158-0.14-1.848c0-1.25,0.29-2.14,0.839-2.729c0.55-0.6,1.329-0.95,2.419-0.95
		c1.099,0,1.998,0.34,2.618,0.97c0.63,0.629,0.97,1.669,0.97,2.979c0,0.619-0.03,1.139-0.08,1.578H3.39z M9.346,202.879
		c0.04-0.22,0.05-0.539,0.05-0.879c0-1.859-1.039-2.869-2.858-2.869c-1.589-0.01-2.599,0.891-2.599,2.729
		c0,0.45,0.04,0.79,0.09,1.02H9.346z"/>
	<path d="M10.036,194.969H3.3v-0.949l3.408-2.158c0.79-0.5,1.499-0.891,2.189-1.21l-0.011-0.021
		c-0.899,0.08-1.719,0.101-2.768,0.101H3.3v-0.819h6.736v0.879l-3.417,2.139c-0.75,0.471-1.52,0.92-2.249,1.26l0.01,0.029
		c0.85-0.049,1.659-0.069,2.778-0.069h2.878V194.969z"/>
	<path d="M6.878,184.9v2.619h2.428v-2.918h0.729v3.787H3.3v-3.638h0.729v2.769h2.129V184.9H6.878z"/>
	<path d="M10.036,182.279L3.3,183.988v-0.919l3.408-0.8c0.839-0.199,1.679-0.379,2.329-0.5v-0.02c-0.67-0.109-1.47-0.32-2.339-0.55
		L3.3,180.301v-0.91l3.418-0.818c0.799-0.19,1.599-0.37,2.309-0.471v-0.02c-0.74-0.141-1.489-0.33-2.329-0.539L3.3,176.652v-0.889
		l6.736,1.908v0.91l-3.508,0.85c-0.859,0.209-1.519,0.35-2.199,0.439v0.02c0.67,0.12,1.33,0.27,2.199,0.52l3.508,0.96V182.279z"/>
	<path d="M10.036,171.76H7.178L3.3,173.889v-0.989l1.859-0.949c0.51-0.26,0.919-0.46,1.389-0.669v-0.021
		c-0.439-0.19-0.879-0.42-1.389-0.68l-1.859-0.97v-0.989l3.868,2.259h2.868V171.76z"/>
	<path d="M6.598,162.453c2.318,0,3.548,1.408,3.548,3.128c0,1.779-1.38,3.028-3.418,3.028c-2.139,0-3.538-1.329-3.538-3.129
		C3.19,163.643,4.599,162.453,6.598,162.453z M6.708,167.68c1.439,0,2.728-0.779,2.728-2.148c0-1.379-1.27-2.159-2.798-2.159
		c-1.339,0-2.739,0.7-2.739,2.149C3.899,166.961,5.229,167.68,6.708,167.68z"/>
	<path d="M3.39,161.319c-0.09-0.439-0.14-1.069-0.14-1.669c0-0.93,0.17-1.529,0.549-1.949c0.3-0.34,0.76-0.529,1.279-0.529
		c0.89,0,1.479,0.56,1.719,1.27h0.03c0.18-0.52,0.659-0.83,1.359-0.99c0.939-0.219,1.589-0.379,1.849-0.52v0.9
		c-0.189,0.109-0.77,0.26-1.608,0.449c-0.93,0.199-1.279,0.56-1.31,1.35v0.819h2.918v0.869H3.39z M6.458,160.45v-0.89
		c0-0.93-0.51-1.52-1.279-1.52c-0.87,0-1.249,0.63-1.259,1.549c0,0.42,0.04,0.721,0.08,0.86H6.458z"/>
	<path d="M3.3,155.939v-0.869h3.248v-0.03c-0.26-0.18-0.5-0.36-0.719-0.53L3.3,152.451v-1.079l2.858,2.438l3.877-2.629v1.03
		l-3.308,2.219l0.74,0.64h2.568v0.869H3.3z"/>
	<path d="M9.816,143.692c0.16,0.319,0.32,0.959,0.32,1.779c0,1.899-1.2,3.328-3.408,3.328c-2.109,0-3.538-1.429-3.538-3.518
		c0-0.84,0.18-1.369,0.3-1.599l0.709,0.209c-0.16,0.33-0.28,0.8-0.28,1.36c0,1.579,1.009,2.628,2.778,2.628
		c1.649,0,2.708-0.95,2.708-2.588c0-0.53-0.109-1.07-0.279-1.419L9.816,143.692z"/>
	<path d="M3.3,141.73h6.736v0.869H3.3V141.73z"/>
	<path d="M4.039,138.931v2.049H3.3v-4.987h0.74v2.06h5.996v0.879H4.039z"/>
	<path d="M10.036,133.461H7.178L3.3,135.59v-0.989l1.859-0.95c0.51-0.26,0.919-0.459,1.389-0.669v-0.021
		c-0.439-0.189-0.879-0.42-1.389-0.68L3.3,131.313v-0.99l3.868,2.259h2.868V133.461z"/>
	<path d="M8.976,127.55c0.24-0.39,0.44-0.959,0.44-1.56c0-0.889-0.47-1.409-1.149-1.409c-0.63,0-0.989,0.36-1.339,1.27
		c-0.39,1.1-0.959,1.779-1.909,1.779c-1.05,0-1.829-0.87-1.829-2.179c0-0.689,0.16-1.189,0.33-1.489l0.71,0.239
		c-0.12,0.221-0.32,0.67-0.32,1.279c0,0.92,0.549,1.27,1.009,1.27c0.63,0,0.939-0.409,1.299-1.339
		c0.44-1.14,0.989-1.719,1.979-1.719c1.04,0,1.939,0.77,1.939,2.358c0,0.649-0.19,1.359-0.43,1.719L8.976,127.55z"/>
	<path d="M9.816,117.793c0.16,0.319,0.32,0.959,0.32,1.779c0,1.898-1.2,3.328-3.408,3.328c-2.109,0-3.538-1.43-3.538-3.519
		c0-0.84,0.18-1.369,0.3-1.599l0.709,0.209c-0.16,0.33-0.28,0.8-0.28,1.359c0,1.579,1.009,2.629,2.778,2.629
		c1.649,0,2.708-0.949,2.708-2.589c0-0.529-0.109-1.069-0.279-1.419L9.816,117.793z"/>
	<path d="M6.878,113.212v2.619h2.428v-2.919h0.729v3.788H3.3v-3.638h0.729v2.769h2.129v-2.619H6.878z"/>
	<path d="M10.036,111.78H3.3v-0.949l3.408-2.159c0.79-0.499,1.499-0.89,2.189-1.209l-0.011-0.021
		c-0.899,0.08-1.719,0.101-2.768,0.101H3.3v-0.819h6.736v0.879l-3.417,2.139c-0.75,0.47-1.52,0.92-2.249,1.26l0.01,0.03
		c0.85-0.051,1.659-0.07,2.778-0.07h2.878V111.78z"/>
	<path d="M6.878,101.712v2.619h2.428v-2.919h0.729v3.788H3.3v-3.638h0.729v2.769h2.129v-2.619H6.878z"/>
	<path d="M3.39,100.28c-0.09-0.439-0.14-1.069-0.14-1.669c0-0.93,0.17-1.529,0.549-1.949c0.3-0.34,0.76-0.529,1.279-0.529
		c0.89,0,1.479,0.56,1.719,1.27h0.03c0.18-0.521,0.659-0.83,1.359-0.99c0.939-0.22,1.589-0.379,1.849-0.52v0.899
		c-0.189,0.11-0.77,0.26-1.608,0.45c-0.93,0.2-1.279,0.56-1.31,1.35v0.819h2.918v0.869H3.39z M6.458,99.411v-0.89
		c0-0.93-0.51-1.52-1.279-1.52c-0.87,0-1.249,0.63-1.259,1.55c0,0.419,0.04,0.72,0.08,0.859H6.458z"/>
	<path d="M10.036,93.512H7.178L3.3,95.641v-0.989l1.859-0.95c0.51-0.26,0.919-0.459,1.389-0.669v-0.021
		c-0.439-0.189-0.879-0.42-1.389-0.68L3.3,91.363v-0.99l3.868,2.259h2.868V93.512z"/>
</g>
<line fill="none" stroke="#000000" stroke-miterlimit="10" x1="6.514" y1="81.5" x2="6.514" y2="11.5"/>
<line fill="none" stroke="#000000" stroke-miterlimit="10" x1="6.514" y1="11.5" x2="2.311" y2="15.703"/>
<line fill="none" stroke="#000000" stroke-miterlimit="10" x1="6.514" y1="11.5" x2="10.717" y2="15.703"/>
<line fill="none" stroke="#000000" stroke-miterlimit="10" x1="6.514" y1="218.125" x2="6.514" y2="288.125"/>
<line fill="none" stroke="#000000" stroke-miterlimit="10" x1="6.514" y1="288.125" x2="10.717" y2="283.922"/>
<line fill="none" stroke="#000000" stroke-miterlimit="10" x1="6.514" y1="288.125" x2="2.311" y2="283.922"/>
<g>
</g>
<g>
</g>
<g>
</g>
<g>
</g>
<g>
</g>
<g>
</g>
</svg>
